<svg width="80" height="80" fill="none" xmlns="http://www.w3.org/2000/svg"><path d="m70.266 24.191-12.5 7.5-12.5-7.5v-12.17a5 5 0 0 1 2.426-4.287l7.5-4.5a5 5 0 0 1 5.14 0l7.5 4.5a5 5 0 0 1 2.427 4.287l.007 12.17Zm-12.5 7.5v10" stroke="#00647A" stroke-width="4" stroke-linecap="round" stroke-linejoin="round"/><path d="m45.267 24.191-3.334 2.227a5 5 0 0 0-1.386 6.933l2.226 3.334m27.493-12.494 3.333 2.227a5 5 0 0 1 1.387 6.933l-2.227 3.334M55.266 16.691h5M15.14 34.242l30.054 30.05a5 5 0 0 0 7.07 0l10.607-10.607a5 5 0 0 0 0-7.07m-8.84 15.912 8.84 8.84 7.07-7.073-8.836-8.837m14.141 21.211-8.84-8.84M32.73 16.652 9.835 39.546M8.07 16.566 20.444 28.94m7.073-7.074L15.141 9.492m5.301-5.301L2.766 21.868" stroke="#00647A" stroke-width="4" stroke-linecap="round" stroke-linejoin="round"/></svg>