<svg width="24" height="24" fill="none" xmlns="http://www.w3.org/2000/svg"><g clip-path="url(#a)" stroke="#00647A" stroke-width="1.5"><path d="M4.723 3.738C5.258 1.929 6.133.75 7.123.75s1.867 1.179 2.4 2.988m0 8.274C8.989 13.82 8.113 15 7.123 15s-1.866-1.18-2.4-2.988" stroke-linecap="round" stroke-linejoin="round"/><path d="M8.586 10.424c3.426-1.965 5.55-4.698 4.742-6.105-.807-1.407-4.238-.956-7.664 1.009C2.238 7.292.114 10.025.92 11.433c.807 1.407 4.238.955 7.665-1.01Z" stroke-linecap="round" stroke-linejoin="round"/><path d="M13.328 11.433c.807-1.408-1.316-4.14-4.742-6.105C5.159 3.363 1.728 2.912.92 4.318.114 5.727 2.238 8.46 5.664 10.425c3.426 1.964 6.857 2.416 7.664 1.009ZM5.25 23.25V19.5" stroke-linecap="round" stroke-linejoin="round"/><path d="M11.625.75c7.139 0 8.68 5.878 11.225 12.48a.75.75 0 0 1-.7 1.02h-1.9v3a3 3 0 0 1-3 3h-1.5v3" stroke-linecap="round" stroke-linejoin="round"/><path d="M7.125 8.25a.375.375 0 1 1 0-.75m0 .75a.375.375 0 0 0 0-.75"/></g><defs><clipPath id="a"><path fill="#fff" d="M0 0h24v24H0z"/></clipPath></defs></svg>