<svg width="80" height="80" fill="none" xmlns="http://www.w3.org/2000/svg"><g clip-path="url(#a)" stroke="#00647A" stroke-width="4" stroke-linecap="round" stroke-linejoin="round"><path d="M2.5 57.5a5 5 0 1 0 10 0 5 5 0 0 0-10 0Zm5 5v15m0-25v-50m60 55a5 5 0 1 0 10 0 5 5 0 0 0-10 0Zm5 5v15m0-25v-50M30 22.5a10 10 0 1 0 20 0 10 10 0 0 0-20 0ZM52.5 50a12.5 12.5 0 0 0-25 0m5 17.5 2.5 10h10l2.5-10m-25 10h35m-35-20h5m10 0h5m10 0h5"/></g><defs><clipPath id="a"><path fill="#fff" d="M0 0h80v80H0z"/></clipPath></defs></svg>