<svg width="40" height="41" fill="none" xmlns="http://www.w3.org/2000/svg"><g clip-path="url(#a)" stroke="#fff" stroke-width="2" stroke-miterlimit="10" stroke-linecap="round" stroke-linejoin="round"><path d="m14.56 4.01 21.93 21.93c3.013 3.014 3.013 8.037 0 11.05-3.014 3.013-8.036 3.013-11.05 0L3.51 15.06C.497 12.045.497 7.022 3.51 4.01s8.036-3.013 11.05 0Z"/><path d="M21.465 10.906 10.41 21.961l7.66 7.66 11.055-11.054-7.66-7.66ZM35.001 16.5l1.5-1.5c3-3 3-8 0-11s-8-3-11 0l-1.333 1.333M4.667 24.834 3.5 26.001c-3 3-3 8 0 11s8 3 11 0l1.333-1.334m-3.332-25.084a.333.333 0 0 1 0-.667"/><path d="M12.5 10.583a.333.333 0 0 0 0-.667m-5.499.667a.333.333 0 0 1 0-.667"/><path d="M7 10.583a.333.333 0 0 0 0-.667m26.001 21.001a.333.333 0 1 1 0-.667"/><path d="M33 30.917a.333.333 0 1 0 0-.667m-5.499.667a.333.333 0 1 1 0-.667"/><path d="M27.5 30.917a.333.333 0 1 0 0-.667"/></g><defs><clipPath id="a"><path fill="#fff" transform="translate(0 .5)" d="M0 0h40v40H0z"/></clipPath></defs></svg>