<svg width="80" height="80" fill="none" xmlns="http://www.w3.org/2000/svg"><path d="M29.598 38.195c0-6.227 4.916-11.144 11.144-11.144m-21.308 9.506c0-10.816 8.85-19.666 19.666-19.666M26.07 3.453v5.9C12.957 13.286 3.124 25.414 3.124 39.836v19.667m58.017-41.3c-3.933-4.261-8.85-7.211-14.422-9.178v-5.9m19.503 27.859c5.572 3.606 8.522 7.54-.656 16.39M40.327 76.547 44.26 64.09l-2.95-6.883c-.983-2.295-1.639-11.473-1.966-16.39 0-1.966.983-3.605 2.95-4.26 2.294-.656 4.589.327 5.572 2.294l2.622 5.9 2.95-1.639a26.376 26.376 0 0 0 4.59-2.95" stroke="#00647A" stroke-width="4" stroke-miterlimit="10" stroke-linecap="round" stroke-linejoin="round"/><path d="M71.14 39.508c4.588 2.622 5.571 6.227 3.605 10.489 3.277 4.589 4.916 11.472-11.8 22.944l-.656 3.933" stroke="#00647A" stroke-width="4" stroke-miterlimit="10" stroke-linecap="round" stroke-linejoin="round"/></svg>