<svg width="80" height="80" fill="none" xmlns="http://www.w3.org/2000/svg"><g clip-path="url(#a)" stroke="#00647A" stroke-width="4" stroke-linecap="round" stroke-linejoin="round"><path d="M10.227 67.5A7.727 7.727 0 0 1 2.5 59.773V37.5a35 35 0 0 1 35-35h29.88A10.12 10.12 0 0 1 77.5 12.62a20 20 0 0 1-14.253 19.157l-25.4 7.62a25 25 0 0 0-15.18 12.763l-5.534 11.07a7.73 7.73 0 0 1-6.906 4.27Z"/><path d="M17.215 63.068c7.243.477 20.283-.426 20.283-13.066 0 0 22.11 4.423 24.744-17.924M27.5 62.309v15.19M37.5 50v27.5m10-75c-7.5 0-15 7.5-15 20"/></g><defs><clipPath id="a"><path fill="#fff" d="M0 0h80v80H0z"/></clipPath></defs></svg>