<svg width="80" height="80" fill="none" xmlns="http://www.w3.org/2000/svg"><path d="M70.876 44.75a11.875 11.875 0 0 0-2.983-20.631 11.874 11.874 0 1 0-20.022-12.011 11.872 11.872 0 0 0-15.739 0 11.876 11.876 0 1 0-20.023 12.01A11.875 11.875 0 0 0 9.126 44.75a11.875 11.875 0 1 0 14.25 0 11.87 11.87 0 0 0 1.767-17.369c1.37-.51 2.633-1.27 3.728-2.238a11.879 11.879 0 0 0 22.261 0 11.89 11.89 0 0 0 3.727 2.238 11.873 11.873 0 0 0 1.767 17.37 11.86 11.86 0 0 0-4.547 7.327 11.876 11.876 0 1 0 13.845 13.845 11.872 11.872 0 0 0 4.952-21.172ZM16.25 66.125v9.5" stroke="#00647A" stroke-width="4" stroke-linecap="round" stroke-linejoin="round"/><path d="M43.148 67.973c-4.994 1.478-10.273 3.898-10.273 7.653" stroke="#00647A" stroke-width="4" stroke-linecap="round" stroke-linejoin="round"/></svg>