<svg width="80" height="80" fill="none" xmlns="http://www.w3.org/2000/svg"><path d="M73.666 16.547a7.503 7.503 0 0 0-7.333-13.09L11.793 33.97l2.513 4.494a10 10 0 0 0 10.784 4.903l30.486-6.41a2.5 2.5 0 0 0 1.667-3.667l-3.223-5.76 19.646-10.983ZM51.063 12l20.416 5.767M2.5 65h75" stroke="#00647A" stroke-width="4" stroke-linecap="round" stroke-linejoin="round"/><path d="M7.5 56.25a1.25 1.25 0 0 1 0-2.5m0 2.5a1.25 1.25 0 0 0 0-2.5m20 2.5a1.25 1.25 0 0 1 0-2.5m0 2.5a1.25 1.25 0 0 0 0-2.5m22.5 2.5a1.25 1.25 0 0 1 0-2.5m0 2.5a1.25 1.25 0 0 0 0-2.5m22.5 2.5a1.25 1.25 0 0 1 0-2.5m0 2.5a1.25 1.25 0 0 0 0-2.5m-65 22.5a1.25 1.25 0 0 1 0-2.5m0 2.5a1.25 1.25 0 0 0 0-2.5m20 2.5a1.25 1.25 0 0 1 0-2.5m0 2.5a1.25 1.25 0 0 0 0-2.5m22.5 2.5a1.25 1.25 0 0 1 0-2.5m0 2.5a1.25 1.25 0 0 0 0-2.5m22.5 2.5a1.25 1.25 0 0 1 0-2.5m0 2.5a1.25 1.25 0 0 0 0-2.5" stroke="#00647A" stroke-width="4"/></svg>