<svg width="80" height="80" fill="none" xmlns="http://www.w3.org/2000/svg"><g clip-path="url(#a)" stroke="#00647A" stroke-width="4" stroke-linecap="round" stroke-linejoin="round"><path d="m2.5 7.5 9.887 15.54A25.98 25.98 0 0 0 10 37.5c2.5 22.5 15 40 30 40s27.5-17.5 30-40a25.98 25.98 0 0 0-2.387-14.46L77.5 7.5"/><path d="M32.5 2.5v5.77a31.562 31.562 0 0 0-10.903 4.47L17.5 2.5m45 0-4.097 10.24A31.562 31.562 0 0 0 47.5 8.27V2.5"/><path d="m52.185 9.613-.03.024s-8.334 7.13-2.414 14.423M69.263 42.5s-19.216-5.667-21.65 5.72M10 37.498s19.333 1.147 19.737-7.057M22.89 36.39l6.847 6.11m-1.702 31.075v-.04s4.967-11.203 11.967-11.203"/></g><defs><clipPath id="a"><path fill="#fff" d="M0 0h80v80H0z"/></clipPath></defs></svg>