<svg width="80" height="80" fill="none" xmlns="http://www.w3.org/2000/svg"><path d="M26.095 59.078a83.791 83.791 0 0 1-11.927 3.423l5 15a84.174 84.174 0 0 0 22.5-7.44" stroke="#00647A" stroke-width="4" stroke-linecap="round" stroke-linejoin="round"/><path d="M64.335 49.643A40.286 40.286 0 0 0 69.168 30a27.5 27.5 0 1 0-55 0c0 40 50 47.5 50 47.5l5-15s-40-7.5-40-32.5a11.666 11.666 0 0 1 12.5-12.5 11.667 11.667 0 0 1 12.5 12.5 22.39 22.39 0 0 1-4.423 13.35" stroke="#00647A" stroke-width="4" stroke-linecap="round" stroke-linejoin="round"/></svg>