<svg width="80" height="80" fill="none" xmlns="http://www.w3.org/2000/svg"><g clip-path="url(#a)" stroke="#00647A" stroke-width="4" stroke-linecap="round" stroke-linejoin="round"><path d="M31.689 59.079a10.696 10.696 0 0 0-1.2-.98l8.063-8.06a2.503 2.503 0 0 0-.98-4.14l-2.7-.9-2.593-2.593a2.503 2.503 0 0 0-3.534 0l-6.973 6.973c-.3-.422-.627-.823-.98-1.2a10.79 10.79 0 1 0-7.51 18.41 10.786 10.786 0 1 0 18.407-7.51Zm21.646-43.841c.107.505.25 1.002.43 1.487L40.76 20a2.504 2.504 0 0 0-1.386 3.927l1.883 2.503.623 3.397a2.51 2.51 0 0 0 3.107 1.963l11-2.943c.004.517.047 1.033.127 1.544a10.79 10.79 0 1 0 16.633-10.884 10.782 10.782 0 1 0-19.413-4.27ZM19.871 17.5l-7.5-7.5m17.5 2.5-2.5-7.5m-10 22.5h-7.5m50 35 7.5 7.5m-2.5-17.5h10m-25 15-2.5 7.5"/></g><defs><clipPath id="a"><path fill="#fff" d="M0 0h80v80H0z"/></clipPath></defs></svg>