<svg width="80" height="80" fill="none" xmlns="http://www.w3.org/2000/svg"><path d="M75.625 75.625v-61.75a4.75 4.75 0 0 0-4.75-4.75H57.784a35.666 35.666 0 0 0-35.568 0H9.125a4.75 4.75 0 0 0-4.75 4.75v61.75" stroke="#00647A" stroke-width="4" stroke-linecap="round" stroke-linejoin="round"/><path d="M50.656 50.206a4.75 4.75 0 0 0-4.434-3.081H33.79a4.751 4.751 0 0 0-4.433 3.081l-5.982 15.919h33.25l-5.97-15.919ZM23.375 66.125v4.75a4.75 4.75 0 0 0 4.75 4.75h23.75a4.75 4.75 0 0 0 4.75-4.75v-4.75M25.75 40a14.25 14.25 0 1 1 28.5 0" stroke="#00647A" stroke-width="4" stroke-linecap="round" stroke-linejoin="round"/><path d="M61.77 49.5a23.75 23.75 0 1 0-43.54 0" stroke="#00647A" stroke-width="4" stroke-linecap="round" stroke-linejoin="round"/><path d="M13.875 19.813a1.188 1.188 0 0 1 0-2.375m0 2.375a1.188 1.188 0 0 0 0-2.375m52.25 2.375a1.188 1.188 0 0 1 0-2.375m0 2.375a1.188 1.188 0 0 0 0-2.375" stroke="#00647A" stroke-width="4"/></svg>