<svg width="80" height="80" fill="none" xmlns="http://www.w3.org/2000/svg"><path d="M15.746 12.46C17.53 6.43 20.45 2.5 23.75 2.5s6.22 3.93 8 9.96m0 27.58c-1.78 6.03-4.7 9.96-8 9.96s-6.22-3.93-8-9.96" stroke="#00647A" stroke-width="4" stroke-linecap="round" stroke-linejoin="round"/><path d="M28.619 34.743c11.42-6.549 18.498-15.66 15.809-20.35-2.69-4.69-14.128-3.184-25.549 3.364C7.46 24.305.381 33.416 3.07 38.107c2.69 4.69 14.128 3.184 25.549-3.364Z" stroke="#00647A" stroke-width="4" stroke-linecap="round" stroke-linejoin="round"/><path d="M44.428 38.106c2.69-4.69-4.389-13.8-15.81-20.35C17.199 11.21 5.76 9.704 3.07 14.394c-2.689 4.69 4.389 13.802 15.81 20.35 11.42 6.548 22.858 8.054 25.548 3.363ZM17.5 77.5V65" stroke="#00647A" stroke-width="4" stroke-linecap="round" stroke-linejoin="round"/><path d="M38.75 2.5c23.797 0 28.933 19.593 37.417 41.6a2.503 2.503 0 0 1-2.334 3.4H67.5v10a10 10 0 0 1-10 10h-5v10" stroke="#00647A" stroke-width="4" stroke-linecap="round" stroke-linejoin="round"/><path d="M23.75 27.5a1.25 1.25 0 1 1 0-2.5m0 2.5a1.25 1.25 0 0 0 0-2.5" stroke="#00647A" stroke-width="4"/></svg>