<svg width="24" height="25" fill="none" xmlns="http://www.w3.org/2000/svg"><g clip-path="url(#a)" stroke="#00647A" stroke-miterlimit="10" stroke-linecap="round" stroke-linejoin="round"><path d="M12.864 1.45c-.6-.2-1.3-.2-2-.2-4.6 0-8.2 3.7-8.2 8.2v2.1c0 .6-.1 1.2-.4 1.8l-1.4 3.2c-.3.8 0 1.6.8 2m18.401-.1c.7-.3 1.1-1.2.8-2l-1.4-3.2m.898 10.5c-1.7-3.5-5.3-6-9.5-6s-7.8 2.5-9.5 6"/><path d="M10.864 5.75s-1.4 3.6-5 3.7c-.1.5-.2 1-.2 1.5 0 2.9 2.4 5.2 5.2 5.2 2.3 0 4.2-1.4 4.9-3.4m-7.6 8v3m-1.5-1.5h3M23.25 5.05c0-.4-.3-.8-.8-.8h-2.2v-2.2c0-.4-.3-.8-.8-.8h-1.4c-.4 0-.8.3-.8.8v2.3h-2.2c-.4 0-.8.3-.8.8v1.4c0 .4.3.8.8.8h2.2v2.2c0 .4.3.8.8.8h1.5c.4 0 .8-.3.8-.8v-2.2h2.1c.4 0 .8-.3.8-.8v-1.5Z"/></g><defs><clipPath id="a"><path fill="#fff" transform="translate(0 .5)" d="M0 0h24v24H0z"/></clipPath></defs></svg>