<svg width="80" height="80" fill="none" xmlns="http://www.w3.org/2000/svg"><g clip-path="url(#a)" stroke="#00647A" stroke-width="4" stroke-linecap="round" stroke-linejoin="round"><path d="M57.5 50a2.5 2.5 0 0 0-2.5-2.5h-7.5V40a2.5 2.5 0 0 0-2.5-2.5H35a2.5 2.5 0 0 0-2.5 2.5v7.5H25a2.5 2.5 0 0 0-2.5 2.5v10a2.5 2.5 0 0 0 2.5 2.5h7.5V70a2.5 2.5 0 0 0 2.5 2.5h10a2.5 2.5 0 0 0 2.5-2.5v-7.5H55a2.5 2.5 0 0 0 2.5-2.5V50Zm10-47.5v75m10-75V25a10.03 10.03 0 0 1-10 10 10.03 10.03 0 0 1-10-10V2.5M12.5 35v42.5m0-42.5a10.03 10.03 0 0 1-10-10V12.5a10.03 10.03 0 0 1 10-10 10.03 10.03 0 0 1 10 10V25a10.03 10.03 0 0 1-10 10Z"/></g><defs><clipPath id="a"><path fill="#fff" d="M0 0h80v80H0z"/></clipPath></defs></svg>