<svg width="80" height="80" fill="none" xmlns="http://www.w3.org/2000/svg"><g clip-path="url(#a)" stroke="#00647A" stroke-width="4" stroke-linecap="round" stroke-linejoin="round"><path d="M2.5 20A21.667 21.667 0 0 1 20.163 3a22.527 22.527 0 0 1 27.334 22 26.503 26.503 0 0 1-9.45 20.383 12.77 12.77 0 0 0-5.714 12.116 36.52 36.52 0 0 1-.153 8.054A15 15 0 0 1 2.5 62.499"/><path d="M13.14 25.566a9.168 9.168 0 0 1 18.194 2.273M77.5 32.5h-15m0-15 10-10m-10 40 10 10"/></g><defs><clipPath id="a"><path fill="#fff" d="M0 0h80v80H0z"/></clipPath></defs></svg>