<svg width="80" height="80" fill="none" xmlns="http://www.w3.org/2000/svg"><g clip-path="url(#a)" stroke="#00647A" stroke-width="4" stroke-linecap="round" stroke-linejoin="round"><path d="M69.17 37.496a5 5 0 0 0-5-5c-11.494 0-15.4-7-15.527-7.237a5.247 5.247 0 0 0-4.587-2.763 5 5 0 0 0-4.457 2.97l-20 45a5 5 0 1 0 9.14 4.063L37 55.92a9.887 9.887 0 0 1 4.667 8.334v8.243a5 5 0 0 0 10 0V64.27a19.87 19.87 0 0 0-10.55-17.603l4.503-10.13A29.147 29.147 0 0 0 64.17 42.5a5 5 0 0 0 5-5.003Zm-26.248-26.25a8.75 8.75 0 1 0 17.5 0 8.75 8.75 0 0 0-17.5 0Zm25.566 28.75h9.01m-74.998 0h48.97m-42.048 0v37.5m59-37.5v37.5"/></g><defs><clipPath id="a"><path fill="#fff" d="M0 0h80v80H0z"/></clipPath></defs></svg>