<svg width="80" height="80" fill="none" xmlns="http://www.w3.org/2000/svg"><path d="M32.875 9.125h4.75a4.75 4.75 0 0 1 4.75 4.75v19a19 19 0 0 1-38 0v-19a4.75 4.75 0 0 1 4.75-4.75h4.75m0-4.75V16.25m19-11.875V16.25m23.75 16.625a9.5 9.5 0 1 0 19 0 9.5 9.5 0 0 0-19 0Z" stroke="#00647A" stroke-width="4" stroke-linecap="round" stroke-linejoin="round"/><path d="M23.375 51.875v2.375a21.375 21.375 0 0 0 42.75 0V42.375" stroke="#00647A" stroke-width="4" stroke-linecap="round" stroke-linejoin="round"/></svg>