<svg width="24" height="25" fill="none" xmlns="http://www.w3.org/2000/svg"><g clip-path="url(#a)" stroke="#00647A"><path d="M12 19v4.5" stroke-linecap="round" stroke-linejoin="round"/><path d="M14.25 20.5a.25.25 0 1 1 0-.5m0 .5a.25.25 0 1 0 0-.5m0 3a.25.25 0 1 1 0-.5m0 .5a.25.25 0 1 0 0-.5"/><path d="M6.5 23.5v-3M5 22h3m15.5 2v-1a4 4 0 0 0-2.6-3.745L16 17.61m-8 0-4.9 1.645A4 4 0 0 0 .5 23v1M16.402 8.2l-.338-1.7c-4 0-4-2-4-2h-.083s0 2-4 2l-.34 1.7m2.859 5.3c.373.333.858.512 1.358.5h.284c.5.012.985-.167 1.358-.5m-2.5-4a1.089 1.089 0 0 0-1-.5 1.089 1.089 0 0 0-1 .5m6 0a1.089 1.089 0 0 0-1-.5 1.09 1.09 0 0 0-1 .5" stroke-linecap="round" stroke-linejoin="round"/><path d="M12 17c1.387 0 4.49-1.721 4.932-4.365a1 1 0 0 1 .572-.746c1.078-.49 1.348-2.452.477-2.889.5-2.986.5-8-5.981-8S5.523 6.014 6.019 9c-.871.437-.6 2.4.477 2.889a1 1 0 0 1 .572.746C7.51 15.279 10.613 17 12 17Z" stroke-linecap="round" stroke-linejoin="round"/></g><defs><clipPath id="a"><path fill="#fff" transform="translate(0 .5)" d="M0 0h24v24H0z"/></clipPath></defs></svg>