<svg width="80" height="80" fill="none" xmlns="http://www.w3.org/2000/svg"><g clip-path="url(#a)" stroke="#00647A" stroke-width="4" stroke-linecap="round" stroke-linejoin="round"><path d="M40 2.5V35M27.5 20.434a5 5 0 0 0-8.7-3.363l-3.297 3.626A50 50 0 0 0 2.5 54.334V67.5a10 10 0 0 0 13.713 9.283l8.144-3.257a5 5 0 0 0 3.143-4.643v-48.45Z"/><path d="M17.5 60v-7.5L40 35M17.5 52.5l-5-5m40-27.066a5 5 0 0 1 8.7-3.363l3.296 3.626a50 50 0 0 1 13 33.634V67.5a10 10 0 0 1-13.713 9.283l-8.144-3.257a5 5 0 0 1-3.143-4.643l.003-48.45Z"/><path d="M62.5 60v-7.5L40 35m22.5 17.5 5-5"/></g><defs><clipPath id="a"><path fill="#fff" d="M0 0h80v80H0z"/></clipPath></defs></svg>