<svg width="80" height="80" fill="none" xmlns="http://www.w3.org/2000/svg"><g clip-path="url(#a)" stroke="#00647A" stroke-width="4" stroke-linecap="round" stroke-linejoin="round"><path d="M20.973 21.515a5.281 5.281 0 0 1 8.083.02"/><path d="M11.25 16.25a13.75 13.75 0 1 0 27.5 0 13.75 13.75 0 0 0-27.5 0Zm27.503 23.505A22.436 22.436 0 0 0 2.5 57.502m22.512-9.162v9.16M14.328 37.66l10.684 10.68m10.63-10.625-10.63 10.623m23.323-4.17h25s4.166 0 4.166 4.167v25s0 4.166-4.166 4.166h-25s-4.167 0-4.167-4.166v-25s0-4.167 4.167-4.167ZM52.5 52.5h16.667M52.5 60.832h16.667M52.5 69.168h6.25"/></g><defs><clipPath id="a"><path fill="#fff" d="M0 0h80v80H0z"/></clipPath></defs></svg>