<svg width="80" height="80" fill="none" xmlns="http://www.w3.org/2000/svg"><path d="M52.5 75h-25L30 60h20l2.5 15ZM20 75h40M2.5 50h75" stroke="#00647A" stroke-width="4" stroke-linecap="round" stroke-linejoin="round"/><path d="M12.5 5h55s10 0 10 10v35s0 10-10 10h-55s-10 0-10-10V15s0-10 10-10Z" stroke="#00647A" stroke-width="4" stroke-linecap="round" stroke-linejoin="round"/><path d="M40.665 38.495A30.028 30.028 0 0 0 62.192 30L48.858 16.668a18 18 0 0 1-8.173 1.827 18 18 0 0 1-8.18-1.827L19.172 30.001a30.037 30.037 0 0 0 21.493 8.494Z" stroke="#00647A" stroke-width="4" stroke-linecap="round" stroke-linejoin="round"/></svg>