<svg width="80" height="80" fill="none" xmlns="http://www.w3.org/2000/svg"><g clip-path="url(#a)" stroke="#00647A" stroke-width="4" stroke-linecap="round" stroke-linejoin="round"><path d="M17.5 77.5v-5a5 5 0 0 1 5-5c2.5 0 2.5 10 25 10s30-20 30-30c0-22.5-15-35-35-35a5 5 0 0 1-5-5v-5"/><path d="M2.5 77.5v-5a20.827 20.827 0 0 1 20-20c5.02 0 20.13-12.607 12.403-30.227"/><path d="M22.5 2.5v5a15.017 15.017 0 0 0 15 15h5"/></g><defs><clipPath id="a"><path fill="#fff" d="M0 0h80v80H0z"/></clipPath></defs></svg>