<svg width="40" height="40" fill="none" xmlns="http://www.w3.org/2000/svg"><path fill-rule="evenodd" clip-rule="evenodd" d="M3.996 17.271c0-9.513 7.14-17.271 16-17.271s16 7.758 16 17.271c0 5.68-2.656 10.577-5.64 14.3-2.997 3.736-6.442 6.439-8.294 7.757a3.533 3.533 0 0 1-2.332.662 3.574 3.574 0 0 1-1.8-.662c-1.852-1.318-5.297-4.021-8.293-7.758-2.985-3.722-5.64-8.619-5.64-14.299Zm12.191 2.477c-1.011-1.072-1.578-2.525-1.578-4.041 0-1.518.567-2.97 1.579-4.043C17.198 10.592 18.57 9.99 20 9.99c.488 0 .969.07 1.434.205a5.33 5.33 0 0 1 2.375 1.47c1.011 1.071 1.578 2.525 1.578 4.042 0 1.516-.567 2.969-1.578 4.041-1.008 1.072-2.38 1.674-3.809 1.674-1.43 0-2.8-.602-3.813-1.674Z" fill="#fff"/></svg>