<svg width="40" height="40" fill="none" xmlns="http://www.w3.org/2000/svg"><g clip-path="url(#a)" fill="#fff"><path d="M18.517 24.266a2.117 2.117 0 0 0 2.95 0l16.15-16.15a.833.833 0 0 0-.054-1.226.85.85 0 0 0-.412-.19l-.484-.034H2.852a.833.833 0 0 0-.667.567.8.8 0 0 0 .2.85l16.133 16.183Z"/><path d="M39.817 9.717a.3.3 0 0 0-.334 0L29.15 20.05a.399.399 0 0 0 0 .6l8.333 8.333a1.25 1.25 0 0 1-1.766 1.767l-8.334-8.333a.414.414 0 0 0-.463-.095.416.416 0 0 0-.137.095l-3.55 3.55a4.6 4.6 0 0 1-6.483 0l-3.533-3.484a.402.402 0 0 0-.6 0l-8.334 8.334a1.25 1.25 0 0 1-1.766-1.767l8.333-8.333a.399.399 0 0 0 0-.6L.517 9.783a.3.3 0 0 0-.334 0A.3.3 0 0 0 0 10v20a3.333 3.333 0 0 0 3.333 3.333h33.334A3.333 3.333 0 0 0 40 30V10a.3.3 0 0 0-.183-.283Z"/></g><defs><clipPath id="a"><path fill="#fff" d="M0 0h40v40H0z"/></clipPath></defs></svg>