<svg width="40" height="40" fill="none" xmlns="http://www.w3.org/2000/svg"><g clip-path="url(#a)"><path d="M25.232 37.831a9.478 9.478 0 0 0 11.887-1.307l1.337-1.308a3.21 3.21 0 0 0 0-4.488l-5.676-5.616a3.18 3.18 0 0 0-4.458 0 3.21 3.21 0 0 1-4.487 0l-8.916-8.916a3.15 3.15 0 0 1 0-4.488 3.18 3.18 0 0 0 0-4.457L9.273 1.604a3.21 3.21 0 0 0-4.488 0L3.478 2.941A9.481 9.481 0 0 0 2.17 14.83a86.008 86.008 0 0 0 23.062 23Z" fill="#fff"/></g><defs><clipPath id="a"><path fill="#fff" transform="matrix(-1 0 0 1 40 0)" d="M0 0h40v40H0z"/></clipPath></defs></svg>