<svg width="40" height="40" viewBox="0 0 40 40" fill="none" xmlns="http://www.w3.org/2000/svg">
<path fill-rule="evenodd" clip-rule="evenodd" d="M3.99609 17.2715C3.99609 7.75781 11.1367 0 19.9961 0C28.8555 0 35.9961 7.75781 35.9961 17.2715C35.9961 22.9512 33.3398 27.8477 30.3555 31.5703C27.3594 35.3066 23.9141 38.0098 22.0625 39.3281C21.3555 39.832 20.5352 40.0527 19.7305 39.9902C19.1016 39.9414 18.4805 39.7207 17.9297 39.3281C16.0781 38.0098 12.6328 35.3066 9.63672 31.5703C6.65234 27.8477 3.99609 22.9512 3.99609 17.2715ZM16.1875 19.748C15.1758 18.6758 14.6094 17.2227 14.6094 15.707C14.6094 14.1895 15.1758 12.7363 16.1875 11.6641C17.1992 10.5918 18.5703 9.99023 20 9.99023C20.4883 9.99023 20.9688 10.0605 21.4336 10.1953C22.3242 10.457 23.1445 10.959 23.8086 11.6641C24.8203 12.7363 25.3867 14.1895 25.3867 15.707C25.3867 17.2227 24.8203 18.6758 23.8086 19.748C22.8008 20.8203 21.4297 21.4219 20 21.4219C18.5703 21.4219 17.1992 20.8203 16.1875 19.748Z" fill="white"/>
</svg>
