<svg width="40" height="40" viewBox="0 0 40 40" fill="none" xmlns="http://www.w3.org/2000/svg">
<g clip-path="url(#clip0_172_960)">
<path d="M18.5175 24.266C18.9126 24.6499 19.4417 24.8646 19.9925 24.8646C20.5433 24.8646 21.0725 24.6499 21.4675 24.266L37.6175 8.11602C37.7262 8.0067 37.8025 7.86937 37.8378 7.71931C37.8731 7.56925 37.8661 7.41233 37.8175 7.26602C37.7682 7.12 37.6801 6.99013 37.5627 6.89032C37.4453 6.7905 37.3029 6.72449 37.1509 6.69935L36.6675 6.66602H3.33418H2.85085C2.69812 6.68938 2.55489 6.75475 2.43716 6.85482C2.31944 6.95488 2.23185 7.08571 2.18418 7.23268C2.13158 7.37851 2.12248 7.53647 2.15799 7.68738C2.19349 7.83828 2.27208 7.97561 2.38418 8.08268L18.5175 24.266Z" fill="white"/>
<path d="M39.8167 9.71657C39.7673 9.68361 39.7093 9.66602 39.65 9.66602C39.5907 9.66602 39.5327 9.68361 39.4833 9.71657L29.15 20.0499C29.1074 20.0874 29.0733 20.1336 29.05 20.1853C29.0267 20.2371 29.0146 20.2932 29.0146 20.3499C29.0146 20.4067 29.0267 20.4628 29.05 20.5145C29.0733 20.5662 29.1074 20.6124 29.15 20.6499L37.4833 28.9832C37.7041 29.2202 37.8243 29.5336 37.8186 29.8574C37.8129 30.1813 37.6817 30.4903 37.4527 30.7193C37.2237 30.9483 36.9147 31.0795 36.5909 31.0852C36.267 31.0909 35.9536 30.9707 35.7167 30.7499L27.3833 22.4166C27.3445 22.3762 27.2979 22.3442 27.2463 22.3223C27.1948 22.3004 27.1393 22.2891 27.0833 22.2891C27.0273 22.2891 26.9719 22.3004 26.9203 22.3223C26.8688 22.3442 26.8222 22.3762 26.7833 22.4166L23.2333 25.9666C22.3716 26.8225 21.2063 27.3029 19.9917 27.3029C18.7771 27.3029 17.6118 26.8225 16.75 25.9666L13.2167 22.4832C13.1791 22.4407 13.133 22.4066 13.0812 22.3832C13.0295 22.3599 12.9734 22.3478 12.9167 22.3478C12.8599 22.3478 12.8038 22.3599 12.7521 22.3832C12.7004 22.4066 12.6542 22.4407 12.6167 22.4832L4.28333 30.8166C4.04638 31.0374 3.73296 31.1576 3.40913 31.1519C3.08529 31.1461 2.77632 31.015 2.5473 30.7859C2.31828 30.5569 2.18709 30.2479 2.18138 29.9241C2.17566 29.6003 2.29587 29.2869 2.51667 29.0499L10.85 20.7166C10.8926 20.679 10.9267 20.6329 10.95 20.5811C10.9733 20.5294 10.9854 20.4733 10.9854 20.4166C10.9854 20.3598 10.9733 20.3037 10.95 20.252C10.9267 20.2003 10.8926 20.1541 10.85 20.1166L0.516667 9.78324C0.467333 9.75028 0.409333 9.73268 0.35 9.73268C0.290667 9.73268 0.232667 9.75028 0.183333 9.78324C0.137265 9.80142 0.0964132 9.83071 0.0644233 9.86852C0.0324334 9.90633 0.0103006 9.95146 0 9.99991L0 29.9999C0 30.884 0.351189 31.7318 0.976311 32.3569C1.60143 32.982 2.44928 33.3332 3.33333 33.3332H36.6667C37.5507 33.3332 38.3986 32.982 39.0237 32.3569C39.6488 31.7318 40 30.884 40 29.9999V9.99991C40.0014 9.93974 39.9846 9.88054 39.952 9.83002C39.9193 9.77949 39.8721 9.73996 39.8167 9.71657Z" fill="white"/>
</g>
<defs>
<clipPath id="clip0_172_960">
<rect width="40" height="40" fill="white"/>
</clipPath>
</defs>
</svg>
