<svg width="40" height="40" viewBox="0 0 40 40" fill="none" xmlns="http://www.w3.org/2000/svg">
<g clip-path="url(#clip0_172_951)">
<path d="M19.9922 0C16.0366 0 12.1698 1.17298 8.88079 3.37061C5.59181 5.56824 3.02836 8.69181 1.51461 12.3463C0.000853181 16.0009 -0.395214 20.0222 0.376491 23.9018C1.1482 27.7814 3.05301 31.3451 5.85006 34.1421C8.64711 36.9392 12.2108 38.844 16.0904 39.6157C19.97 40.3874 23.9913 39.9913 27.6459 38.4776C31.3004 36.9638 34.424 34.4004 36.6216 31.1114C38.8192 27.8224 39.9922 23.9556 39.9922 20C39.9922 14.6957 37.8851 9.60859 34.1343 5.85786C30.3836 2.10714 25.2965 0 19.9922 0ZM28.6589 28.7C28.5106 28.8629 28.3316 28.9949 28.132 29.0882C27.9325 29.1815 27.7165 29.2343 27.4964 29.2436C27.2763 29.2529 27.0566 29.2185 26.8499 29.1424C26.6432 29.0662 26.4536 28.9498 26.2922 28.8L17.9589 21.2333C17.8013 21.0703 17.6786 20.8768 17.5984 20.6648C17.5181 20.4527 17.482 20.2265 17.4922 20V10.8333C17.4922 10.3913 17.6678 9.96738 17.9804 9.65482C18.2929 9.34226 18.7168 9.16667 19.1589 9.16667C19.6009 9.16667 20.0248 9.34226 20.3374 9.65482C20.6499 9.96738 20.8255 10.3913 20.8255 10.8333V19.2667L28.5422 26.35C28.8686 26.6466 29.0642 27.0604 29.086 27.5009C29.1079 27.9414 28.9543 28.3726 28.6589 28.7Z" fill="white"/>
</g>
<defs>
<clipPath id="clip0_172_951">
<rect width="40" height="40" fill="white" transform="translate(-0.0078125)"/>
</clipPath>
</defs>
</svg>
