<svg width="40" height="40" viewBox="0 0 40 40" fill="none" xmlns="http://www.w3.org/2000/svg">
<g clip-path="url(#clip0_172_946)">
<path d="M25.2317 37.8312C27.0618 39.0121 29.2427 39.5266 31.4076 39.2883C33.5725 39.0503 35.5894 38.0741 37.1192 36.5238L38.4565 35.2161C39.0428 34.6163 39.3711 33.8109 39.3711 32.9723C39.3711 32.1335 39.0428 31.3281 38.4565 30.7283L32.7802 25.1116C32.1855 24.5272 31.3851 24.1997 30.5513 24.1997C29.7175 24.1997 28.9171 24.5272 28.3224 25.1116C27.7227 25.6979 26.9173 26.0262 26.0786 26.0262C25.2399 26.0262 24.4346 25.6979 23.8349 25.1116L14.9192 16.196C14.6218 15.9029 14.3856 15.5536 14.2244 15.1684C14.0632 14.7832 13.9802 14.3698 13.9802 13.9522C13.9802 13.5346 14.0632 13.1212 14.2244 12.736C14.3856 12.3508 14.6218 12.0015 14.9192 11.7084C15.5036 11.1137 15.8311 10.3133 15.8311 9.47952C15.8311 8.64574 15.5036 7.84529 14.9192 7.2506L9.27273 1.60404C8.67302 1.01774 7.86759 0.689456 7.02873 0.689456C6.19016 0.689456 5.38473 1.01774 4.78502 1.60404L3.47759 2.9414C1.92731 4.47114 0.95102 6.48803 0.712735 8.65295C0.474735 10.8179 0.98902 12.9987 2.16988 14.8289C8.32188 23.8953 16.1494 31.7026 25.2317 37.8312Z" fill="white"/>
</g>
<defs>
<clipPath id="clip0_172_946">
<rect width="40" height="40" fill="white" transform="matrix(-1 8.74228e-08 8.74228e-08 1 40 0)"/>
</clipPath>
</defs>
</svg>
