<svg width="18" height="18" viewBox="0 0 18 18" fill="none" xmlns="http://www.w3.org/2000/svg">
<g clip-path="url(#clip0_131_2587)">
<path d="M17.9891 9.0009C17.9884 8.74553 17.9337 8.49319 17.8284 8.2605C17.7232 8.02781 17.5699 7.82005 17.3786 7.6509L8.99431 0.271649C8.77773 0.0943559 8.50079 0.00806682 8.22184 0.0309672C7.94288 0.0538675 7.68372 0.184169 7.49895 0.39441C7.31419 0.60465 7.21826 0.87841 7.23139 1.15799C7.24451 1.43757 7.36567 1.70114 7.56931 1.89315L14.0471 7.59315C14.0755 7.61835 14.0956 7.65159 14.1047 7.68846C14.1138 7.72534 14.1114 7.7641 14.098 7.79963C14.0846 7.83516 14.0607 7.86578 14.0295 7.88743C13.9983 7.90909 13.9613 7.92076 13.9233 7.9209H1.08781C0.801379 7.9209 0.526676 8.03469 0.324137 8.23722C0.121598 8.43976 0.0078125 8.71447 0.0078125 9.0009C0.0078125 9.28733 0.121598 9.56203 0.324137 9.76457C0.526676 9.96711 0.801379 10.0809 1.08781 10.0809H13.9211C13.959 10.0813 13.996 10.0931 14.0271 10.1148C14.0582 10.1366 14.082 10.1672 14.0954 10.2028C14.1088 10.2383 14.1111 10.277 14.1021 10.3139C14.0931 10.3508 14.0731 10.3841 14.0448 10.4094L7.56706 16.1094C7.45377 16.2009 7.36016 16.3144 7.29185 16.443C7.22355 16.5716 7.18196 16.7127 7.16958 16.8578C7.15721 17.0029 7.1743 17.149 7.21985 17.2873C7.26539 17.4256 7.33843 17.5533 7.43459 17.6627C7.53075 17.7721 7.64803 17.8608 7.77938 17.9237C7.91074 17.9866 8.05345 18.0223 8.19894 18.0286C8.34443 18.0349 8.48969 18.0117 8.62599 17.9604C8.76229 17.9091 8.88681 17.8308 8.99206 17.7302L17.3778 10.3509C17.5693 10.1819 17.7229 9.97416 17.8282 9.74145C17.9336 9.50875 17.9884 9.25634 17.9891 9.0009Z" fill="white"/>
</g>
<defs>
<clipPath id="clip0_131_2587">
<rect width="18" height="18" fill="white"/>
</clipPath>
</defs>
</svg>
