<svg width="80" height="80" viewBox="0 0 80 80" fill="none" xmlns="http://www.w3.org/2000/svg">
<path d="M70.2656 24.1912L57.7656 31.6912L45.2656 24.1912V12.0212C45.2657 11.1579 45.4892 10.3094 45.9145 9.55825C46.3397 8.80706 46.9522 8.17875 47.6923 7.73449L55.1923 3.23449C55.9688 2.76919 56.8571 2.52344 57.7623 2.52344C58.6675 2.52344 59.5558 2.76919 60.3323 3.23449L67.8323 7.73449C68.5724 8.17875 69.1849 8.80706 69.6101 9.55825C70.0354 10.3094 70.2589 11.1579 70.259 12.0212L70.2656 24.1912Z" stroke="#00647A" stroke-width="4" stroke-linecap="round" stroke-linejoin="round"/>
<path d="M57.7656 31.6914V41.6914" stroke="#00647A" stroke-width="4" stroke-linecap="round" stroke-linejoin="round"/>
<path d="M45.2666 24.1914L41.9333 26.4181C40.8301 27.1537 40.0642 28.2973 39.8041 29.5976C39.5441 30.8978 39.8112 32.2481 40.5466 33.3514L42.7733 36.6847" stroke="#00647A" stroke-width="4" stroke-linecap="round" stroke-linejoin="round"/>
<path d="M70.2656 24.1914L73.599 26.4181C74.7022 27.1537 75.4681 28.2973 75.7281 29.5976C75.9881 30.8978 75.7211 32.2481 74.9856 33.3514L72.759 36.6847" stroke="#00647A" stroke-width="4" stroke-linecap="round" stroke-linejoin="round"/>
<path d="M55.2656 16.6914H60.2656" stroke="#00647A" stroke-width="4" stroke-linecap="round" stroke-linejoin="round"/>
<path d="M15.1406 34.2422L45.194 64.2922C46.1316 65.2295 47.4031 65.7561 48.729 65.7561C50.0548 65.7561 51.3263 65.2295 52.264 64.2922L62.8706 53.6855C63.808 52.7479 64.3346 51.4763 64.3346 50.1505C64.3346 48.8247 63.808 47.5532 62.8706 46.6155" stroke="#00647A" stroke-width="4" stroke-linecap="round" stroke-linejoin="round"/>
<path d="M54.0312 62.527L62.8713 71.367L69.9413 64.2937L61.1046 55.457" stroke="#00647A" stroke-width="4" stroke-linecap="round" stroke-linejoin="round"/>
<path d="M75.2462 76.6681L66.4062 67.8281" stroke="#00647A" stroke-width="4" stroke-linecap="round" stroke-linejoin="round"/>
<path d="M32.7293 16.6523L9.83594 39.5457" stroke="#00647A" stroke-width="4" stroke-linecap="round" stroke-linejoin="round"/>
<path d="M8.07031 16.5664L20.4436 28.9397" stroke="#00647A" stroke-width="4" stroke-linecap="round" stroke-linejoin="round"/>
<path d="M27.5173 21.8655L15.1406 9.49219" stroke="#00647A" stroke-width="4" stroke-linecap="round" stroke-linejoin="round"/>
<path d="M20.4423 4.19141L2.76562 21.8681" stroke="#00647A" stroke-width="4" stroke-linecap="round" stroke-linejoin="round"/>
</svg>
