<svg width="24" height="24" viewBox="0 0 24 24" fill="none" xmlns="http://www.w3.org/2000/svg">
<g clip-path="url(#clip0_157_2091)">
<path d="M4.72266 3.738C5.25766 1.929 6.13366 0.75 7.12366 0.75C8.11366 0.75 8.98966 1.929 9.52366 3.738" stroke="#00647A" stroke-width="1.5" stroke-linecap="round" stroke-linejoin="round"/>
<path d="M9.52266 12.0117C8.98866 13.8207 8.11266 14.9997 7.12266 14.9997C6.13266 14.9997 5.25666 13.8207 4.72266 12.0117" stroke="#00647A" stroke-width="1.5" stroke-linecap="round" stroke-linejoin="round"/>
<path d="M8.58563 10.4236C12.0117 8.45913 14.1351 5.72588 13.3283 4.31872C12.5214 2.91156 9.08997 3.36335 5.66382 5.32783C2.23768 7.29231 0.114298 10.0255 0.921133 11.4327C1.72797 12.8399 5.15948 12.3881 8.58563 10.4236Z" stroke="#00647A" stroke-width="1.5" stroke-linecap="round" stroke-linejoin="round"/>
<path d="M13.3283 11.4327C14.1351 10.0255 12.0117 7.29231 8.58562 5.32784C5.15948 3.36336 1.72797 2.91156 0.921132 4.31872C0.114298 5.72588 2.23768 8.45914 5.66382 10.4236C9.08997 12.3881 12.5215 12.8399 13.3283 11.4327Z" stroke="#00647A" stroke-width="1.5" stroke-linecap="round" stroke-linejoin="round"/>
<path d="M5.25 23.25V19.5" stroke="#00647A" stroke-width="1.5" stroke-linecap="round" stroke-linejoin="round"/>
<path d="M11.625 0.75C18.764 0.75 20.305 6.628 22.85 13.23C22.8936 13.3437 22.9089 13.4662 22.8946 13.5871C22.8804 13.708 22.8369 13.8236 22.768 13.9239C22.6992 14.0243 22.6069 14.1064 22.4993 14.1632C22.3916 14.22 22.2717 14.2498 22.15 14.25H20.25V17.25C20.25 18.0456 19.9339 18.8087 19.3713 19.3713C18.8087 19.9339 18.0456 20.25 17.25 20.25H15.75V23.25" stroke="#00647A" stroke-width="1.5" stroke-linecap="round" stroke-linejoin="round"/>
<path d="M7.125 8.25C6.91789 8.25 6.75 8.08211 6.75 7.875C6.75 7.6679 6.91789 7.5 7.125 7.5" stroke="#00647A" stroke-width="1.5"/>
<path d="M7.125 8.25C7.3321 8.25 7.5 8.08211 7.5 7.875C7.5 7.6679 7.3321 7.5 7.125 7.5" stroke="#00647A" stroke-width="1.5"/>
</g>
<defs>
<clipPath id="clip0_157_2091">
<rect width="24" height="24" fill="white"/>
</clipPath>
</defs>
</svg>
