<svg width="40" height="41" viewBox="0 0 40 41" fill="none" xmlns="http://www.w3.org/2000/svg">
<g clip-path="url(#clip0_131_2779)">
<path d="M14.5591 4.01004L36.49 25.9409C39.5033 28.9542 39.5033 33.9765 36.49 36.99C33.4765 40.0034 28.4542 40.0034 25.4408 36.99L3.51005 15.0592C0.49665 12.0458 0.49665 7.02344 3.51005 4.01004C6.52343 0.996652 11.5457 0.996652 14.5591 4.01004Z" stroke="white" stroke-width="2" stroke-miterlimit="10" stroke-linecap="round" stroke-linejoin="round"/>
<path d="M21.4649 10.9062L10.4102 21.961L18.0704 29.6212L29.125 18.5665L21.4649 10.9062Z" stroke="white" stroke-width="2" stroke-miterlimit="10" stroke-linecap="round" stroke-linejoin="round"/>
<path d="M35.0013 16.5L36.5013 15C39.5013 12 39.5013 6.99999 36.5013 3.99999C33.5013 1 28.5013 1 25.5013 3.99999L24.168 5.33334" stroke="white" stroke-width="2" stroke-miterlimit="10" stroke-linecap="round" stroke-linejoin="round"/>
<path d="M4.66667 24.834L3.5 26.0007C0.5 29.0007 0.5 34.0007 3.5 37.0007C6.5 40.0007 11.5 40.0007 14.5 37.0007L15.8333 35.6673" stroke="white" stroke-width="2" stroke-miterlimit="10" stroke-linecap="round" stroke-linejoin="round"/>
<path d="M12.5013 10.5827C12.3172 10.5827 12.168 10.4334 12.168 10.2494C12.168 10.0653 12.3172 9.91602 12.5013 9.91602" stroke="white" stroke-width="2" stroke-miterlimit="10" stroke-linecap="round" stroke-linejoin="round"/>
<path d="M12.5 10.5827C12.6841 10.5827 12.8333 10.4334 12.8333 10.2493C12.8333 10.0653 12.6841 9.91602 12.5 9.91602" stroke="white" stroke-width="2" stroke-miterlimit="10" stroke-linecap="round" stroke-linejoin="round"/>
<path d="M7.0013 10.5827C6.8172 10.5827 6.66797 10.4334 6.66797 10.2494C6.66797 10.0653 6.8172 9.91602 7.0013 9.91602" stroke="white" stroke-width="2" stroke-miterlimit="10" stroke-linecap="round" stroke-linejoin="round"/>
<path d="M7 10.5827C7.18408 10.5827 7.33332 10.4334 7.33332 10.2493C7.33332 10.0653 7.18408 9.91602 7 9.91602" stroke="white" stroke-width="2" stroke-miterlimit="10" stroke-linecap="round" stroke-linejoin="round"/>
<path d="M33.0013 30.9167C32.8171 30.9167 32.668 30.7675 32.668 30.5833C32.668 30.3992 32.8171 30.25 33.0013 30.25" stroke="white" stroke-width="2" stroke-miterlimit="10" stroke-linecap="round" stroke-linejoin="round"/>
<path d="M33 30.9167C33.1842 30.9167 33.3333 30.7675 33.3333 30.5833C33.3333 30.3992 33.1842 30.25 33 30.25" stroke="white" stroke-width="2" stroke-miterlimit="10" stroke-linecap="round" stroke-linejoin="round"/>
<path d="M27.5013 30.9167C27.3171 30.9167 27.168 30.7675 27.168 30.5833C27.168 30.3992 27.3171 30.25 27.5013 30.25" stroke="white" stroke-width="2" stroke-miterlimit="10" stroke-linecap="round" stroke-linejoin="round"/>
<path d="M27.5 30.9167C27.6842 30.9167 27.8333 30.7675 27.8333 30.5833C27.8333 30.3992 27.6842 30.25 27.5 30.25" stroke="white" stroke-width="2" stroke-miterlimit="10" stroke-linecap="round" stroke-linejoin="round"/>
</g>
<defs>
<clipPath id="clip0_131_2779">
<rect width="40" height="40" fill="white" transform="translate(0 0.5)"/>
</clipPath>
</defs>
</svg>
