<svg width="80" height="80" viewBox="0 0 80 80" fill="none" xmlns="http://www.w3.org/2000/svg">
<path d="M29.5977 38.1954C29.5977 31.9675 34.5144 27.0508 40.742 27.0508" stroke="#00647A" stroke-width="4" stroke-miterlimit="10" stroke-linecap="round" stroke-linejoin="round"/>
<path d="M19.4336 36.5572C19.4336 25.7406 28.2836 16.8906 39.1001 16.8906" stroke="#00647A" stroke-width="4" stroke-miterlimit="10" stroke-linecap="round" stroke-linejoin="round"/>
<path d="M26.0694 3.45312V9.35306C12.9583 13.2864 3.125 25.4143 3.125 39.8364V59.503" stroke="#00647A" stroke-width="4" stroke-miterlimit="10" stroke-linecap="round" stroke-linejoin="round"/>
<path d="M61.1411 18.2027C57.2077 13.9416 52.2911 10.9916 46.7188 9.02496V3.125" stroke="#00647A" stroke-width="4" stroke-miterlimit="10" stroke-linecap="round" stroke-linejoin="round"/>
<path d="M66.2217 30.9844C71.7941 34.5899 74.7441 38.5232 65.5664 47.3732" stroke="#00647A" stroke-width="4" stroke-miterlimit="10" stroke-linecap="round" stroke-linejoin="round"/>
<path d="M40.3271 76.5468L44.2604 64.0911L41.3104 57.2078C40.3271 54.9134 39.6714 45.7354 39.3438 40.8188C39.3438 38.8521 40.3271 37.2134 42.2938 36.5578C44.5881 35.9021 46.8827 36.8854 47.8661 38.8521L50.4881 44.7521L53.4381 43.1134C54.7494 42.4578 56.3881 41.4744 58.0271 40.1631" stroke="#00647A" stroke-width="4" stroke-miterlimit="10" stroke-linecap="round" stroke-linejoin="round"/>
<path d="M71.1391 39.5078C75.7281 42.1301 76.7114 45.7355 74.7447 49.9968C78.0224 54.5855 79.6614 61.4688 62.9447 72.9411L62.2891 76.8745" stroke="#00647A" stroke-width="4" stroke-miterlimit="10" stroke-linecap="round" stroke-linejoin="round"/>
</svg>
