<svg width="80" height="80" viewBox="0 0 80 80" fill="none" xmlns="http://www.w3.org/2000/svg">
<g clip-path="url(#clip0_168_646)">
<path d="M10.2267 67.5C8.17743 67.5 6.21212 66.6859 4.76309 65.2369C3.31406 63.7879 2.5 61.8226 2.5 59.7733V37.5C2.5 28.2174 6.18749 19.315 12.7513 12.7513C19.315 6.18749 28.2174 2.5 37.5 2.5H67.38C68.709 2.5 70.0249 2.76176 71.2528 3.27034C72.4806 3.77892 73.5962 4.52435 74.5359 5.46408C75.4756 6.40381 76.2211 7.51943 76.7297 8.74724C77.2382 9.97506 77.5 11.291 77.5 12.62C77.5 16.9213 76.1134 21.1079 73.5458 24.5588C70.9782 28.0096 67.3665 30.5408 63.2467 31.7767L37.8467 39.3967C34.5796 40.3761 31.5475 42.0137 28.9369 44.2087C26.3263 46.4036 24.1925 49.1096 22.6667 52.16L17.1333 63.23C16.4915 64.5123 15.5055 65.5908 14.2858 66.3449C13.0661 67.099 11.6607 67.4989 10.2267 67.5Z" stroke="#00647A" stroke-width="4" stroke-linecap="round" stroke-linejoin="round"/>
<path d="M17.2148 63.0681C24.4582 63.5448 37.4982 62.6415 37.4982 50.0015C37.4982 50.0015 59.6082 54.4248 62.2415 32.0781" stroke="#00647A" stroke-width="4" stroke-linecap="round" stroke-linejoin="round"/>
<path d="M27.5 62.3086V77.4986" stroke="#00647A" stroke-width="4" stroke-linecap="round" stroke-linejoin="round"/>
<path d="M37.5 50V77.5" stroke="#00647A" stroke-width="4" stroke-linecap="round" stroke-linejoin="round"/>
<path d="M47.5 2.5C40 2.5 32.5 10 32.5 22.5" stroke="#00647A" stroke-width="4" stroke-linecap="round" stroke-linejoin="round"/>
</g>
<defs>
<clipPath id="clip0_168_646">
<rect width="80" height="80" fill="white"/>
</clipPath>
</defs>
</svg>
