<svg width="80" height="80" viewBox="0 0 80 80" fill="none" xmlns="http://www.w3.org/2000/svg">
<path d="M70.8764 44.7495C72.5827 43.4702 73.9129 41.7551 74.7275 39.7843C75.542 37.8135 75.8108 35.6597 75.5057 33.5491C75.2005 31.4385 74.3326 29.4491 72.9932 27.7897C71.6537 26.1303 69.8921 24.8622 67.8934 24.1187C69.0487 22.8129 69.9023 21.2687 70.3935 19.5958C70.8848 17.9229 71.0016 16.1624 70.7358 14.4393C70.4699 12.7162 69.8279 11.0728 68.8553 9.62573C67.8827 8.1787 66.6035 6.96359 65.1083 6.0667C63.6132 5.16982 61.9389 4.61316 60.2044 4.43627C58.4699 4.25939 56.7177 4.46661 55.0723 5.04322C53.4269 5.61984 51.9287 6.55169 50.684 7.7726C49.4394 8.99351 48.4788 10.4735 47.8706 12.1075C45.6998 10.1857 42.9007 9.1248 40.0014 9.1248C37.1022 9.1248 34.3031 10.1857 32.1323 12.1075C31.5241 10.4735 30.5635 8.99351 29.3189 7.7726C28.0742 6.55169 26.576 5.61984 24.9306 5.04322C23.2852 4.46661 21.533 4.25939 19.7985 4.43627C18.064 4.61316 16.3897 5.16982 14.8946 6.0667C13.3994 6.96359 12.1201 8.1787 11.1476 9.62573C10.175 11.0728 9.53296 12.7162 9.26711 14.4393C9.00126 16.1624 9.1181 17.9229 9.60934 19.5958C10.1006 21.2687 10.9542 22.8129 12.1094 24.1187C10.1108 24.8622 8.34917 26.1303 7.00972 27.7897C5.67027 29.4491 4.80239 31.4385 4.49722 33.5491C4.19205 35.6597 4.46087 37.8135 5.27543 39.7843C6.08999 41.7551 7.42023 43.4702 9.12645 44.7495C7.13256 46.2449 5.65974 48.3298 4.9166 50.7088C4.17346 53.0877 4.19768 55.6402 4.98583 58.0047C5.77398 60.3692 7.28611 62.4257 9.30801 63.883C11.3299 65.3403 13.7591 66.1245 16.2514 66.1245C18.7438 66.1245 21.173 65.3403 23.1949 63.883C25.2168 62.4257 26.7289 60.3692 27.5171 58.0047C28.3052 55.6402 28.3294 53.0877 27.5863 50.7088C26.8432 48.3298 25.3703 46.2449 23.3764 44.7495C24.689 43.7655 25.7834 42.5202 26.5905 41.0921C27.3977 39.664 27.9001 38.0841 28.0661 36.4521C28.2322 34.8201 28.0582 33.1714 27.5551 31.6101C27.0521 30.0487 26.2309 28.6085 25.1434 27.3803C26.5129 26.8695 27.7764 26.1105 28.8706 25.1415C29.7163 27.4114 31.2357 29.3685 33.2252 30.7504C35.2147 32.1323 37.5791 32.8729 40.0014 32.8729C42.4238 32.8729 44.7882 32.1323 46.7777 30.7504C48.7672 29.3685 50.2866 27.4114 51.1323 25.1415C52.2265 26.1105 53.49 26.8695 54.8594 27.3803C53.772 28.6085 52.9508 30.0487 52.4478 31.6101C51.9447 33.1714 51.7707 34.8201 51.9367 36.4521C52.1028 38.0841 52.6052 39.664 53.4124 41.0921C54.2195 42.5202 55.3139 43.7655 56.6264 44.7495C54.2448 46.5348 52.6216 49.1505 52.0791 52.0772C49.9524 52.4724 47.974 53.441 46.3575 54.8784C44.7411 56.3159 43.5479 58.1675 42.907 60.2335C42.266 62.2995 42.2015 64.5014 42.7205 66.6013C43.2395 68.7013 44.3222 70.6196 45.8518 72.1492C47.3813 73.6788 49.2996 74.7615 51.3996 75.2805C53.4996 75.7994 55.7014 75.735 57.7674 75.094C59.8334 74.453 61.6851 73.2599 63.1225 71.6434C64.56 70.027 65.5286 68.0486 65.9238 65.9218C68.1913 65.5008 70.2871 64.4285 71.9551 62.8359C73.6231 61.2432 74.7911 59.1992 75.3165 56.9535C75.8418 54.7079 75.7016 52.3579 74.9131 50.1906C74.1246 48.0233 72.7219 46.1326 70.8764 44.7495Z" stroke="#00647A" stroke-width="4" stroke-linecap="round" stroke-linejoin="round"/>
<path d="M16.25 66.125V75.625" stroke="#00647A" stroke-width="4" stroke-linecap="round" stroke-linejoin="round"/>
<path d="M43.1477 67.9727C38.1538 69.4515 32.875 71.8708 32.875 75.6265" stroke="#00647A" stroke-width="4" stroke-linecap="round" stroke-linejoin="round"/>
</svg>
