<svg width="80" height="80" viewBox="0 0 80 80" fill="none" xmlns="http://www.w3.org/2000/svg">
<path d="M61.668 53.8244C61.668 59.7918 59.2974 65.5148 55.0779 69.7343C50.8583 73.9539 45.1353 76.3244 39.168 76.3244C33.2006 76.3244 27.4776 73.9539 23.2581 69.7343C19.0385 65.5148 16.668 59.7918 16.668 53.8244C16.668 37.5911 31.4946 13.1177 37.0746 4.49108C37.2991 4.13939 37.6085 3.84992 37.9744 3.64939C38.3403 3.44887 38.7508 3.34375 39.168 3.34375C39.5852 3.34375 39.9957 3.44887 40.3615 3.64939C40.7274 3.84992 41.0368 4.13939 41.2613 4.49108C46.8413 13.1177 61.668 37.5911 61.668 53.8244Z" stroke="#00647A" stroke-width="4" stroke-linecap="round" stroke-linejoin="round"/>
<path d="M39.168 66.3342C37.5256 66.3342 35.8993 66.0106 34.3821 65.3818C32.8649 64.753 31.4865 63.8313 30.3256 62.6695C29.1647 61.5077 28.2442 60.1286 27.6166 58.6108C26.989 57.0931 26.6667 55.4666 26.668 53.8242" stroke="#00647A" stroke-width="4" stroke-linecap="round" stroke-linejoin="round"/>
</svg>
