<svg width="80" height="80" viewBox="0 0 80 80" fill="none" xmlns="http://www.w3.org/2000/svg">
<path d="M73.6664 16.5471C75.4021 15.5746 76.6804 13.9525 77.2204 12.0374C77.7601 10.1223 77.5171 8.07127 76.5448 6.33544C75.5721 4.59961 73.9501 3.32117 72.0348 2.78137C70.1198 2.24158 68.0688 2.48465 66.3331 3.45711L11.793 33.9704L14.3063 38.4637C15.3468 40.3234 16.9541 41.8021 18.8938 42.6841C20.8336 43.5661 23.0043 43.8054 25.0896 43.3671L55.5764 36.9571C55.9598 36.8764 56.3191 36.7064 56.6251 36.4611C56.9308 36.2161 57.1748 35.9021 57.3371 35.5454C57.4991 35.1884 57.5751 34.7984 57.5588 34.4067C57.5424 34.0151 57.4344 33.6327 57.2431 33.2904L54.0198 27.5304L73.6664 16.5471Z" stroke="#00647A" stroke-width="4" stroke-linecap="round" stroke-linejoin="round"/>
<path d="M51.0625 12L71.4792 17.7667" stroke="#00647A" stroke-width="4" stroke-linecap="round" stroke-linejoin="round"/>
<path d="M2.5 65H77.5" stroke="#00647A" stroke-width="4" stroke-linecap="round" stroke-linejoin="round"/>
<path d="M7.5 56.25C6.80963 56.25 6.25 55.6903 6.25 55C6.25 54.3097 6.80963 53.75 7.5 53.75" stroke="#00647A" stroke-width="4"/>
<path d="M7.5 56.25C8.19037 56.25 8.75 55.6903 8.75 55C8.75 54.3097 8.19037 53.75 7.5 53.75" stroke="#00647A" stroke-width="4"/>
<path d="M27.5 56.25C26.8096 56.25 26.25 55.6903 26.25 55C26.25 54.3097 26.8096 53.75 27.5 53.75" stroke="#00647A" stroke-width="4"/>
<path d="M27.5 56.25C28.1904 56.25 28.75 55.6903 28.75 55C28.75 54.3097 28.1904 53.75 27.5 53.75" stroke="#00647A" stroke-width="4"/>
<path d="M50 56.25C49.3097 56.25 48.75 55.6903 48.75 55C48.75 54.3097 49.3097 53.75 50 53.75" stroke="#00647A" stroke-width="4"/>
<path d="M50 56.25C50.6903 56.25 51.25 55.6903 51.25 55C51.25 54.3097 50.6903 53.75 50 53.75" stroke="#00647A" stroke-width="4"/>
<path d="M72.5 56.25C71.8097 56.25 71.25 55.6903 71.25 55C71.25 54.3097 71.8097 53.75 72.5 53.75" stroke="#00647A" stroke-width="4"/>
<path d="M72.5 56.25C73.1903 56.25 73.75 55.6903 73.75 55C73.75 54.3097 73.1903 53.75 72.5 53.75" stroke="#00647A" stroke-width="4"/>
<path d="M7.5 76.25C6.80963 76.25 6.25 75.6903 6.25 75C6.25 74.3097 6.80963 73.75 7.5 73.75" stroke="#00647A" stroke-width="4"/>
<path d="M7.5 76.25C8.19037 76.25 8.75 75.6903 8.75 75C8.75 74.3097 8.19037 73.75 7.5 73.75" stroke="#00647A" stroke-width="4"/>
<path d="M27.5 76.25C26.8096 76.25 26.25 75.6903 26.25 75C26.25 74.3097 26.8096 73.75 27.5 73.75" stroke="#00647A" stroke-width="4"/>
<path d="M27.5 76.25C28.1904 76.25 28.75 75.6903 28.75 75C28.75 74.3097 28.1904 73.75 27.5 73.75" stroke="#00647A" stroke-width="4"/>
<path d="M50 76.25C49.3097 76.25 48.75 75.6903 48.75 75C48.75 74.3097 49.3097 73.75 50 73.75" stroke="#00647A" stroke-width="4"/>
<path d="M50 76.25C50.6903 76.25 51.25 75.6903 51.25 75C51.25 74.3097 50.6903 73.75 50 73.75" stroke="#00647A" stroke-width="4"/>
<path d="M72.5 76.25C71.8097 76.25 71.25 75.6903 71.25 75C71.25 74.3097 71.8097 73.75 72.5 73.75" stroke="#00647A" stroke-width="4"/>
<path d="M72.5 76.25C73.1903 76.25 73.75 75.6903 73.75 75C73.75 74.3097 73.1903 73.75 72.5 73.75" stroke="#00647A" stroke-width="4"/>
</svg>
