<svg width="80" height="80" viewBox="0 0 80 80" fill="none" xmlns="http://www.w3.org/2000/svg">
<g clip-path="url(#clip0_168_839)">
<path d="M2.5 7.5L12.3867 23.04C10.2199 27.5311 9.39139 32.5508 10 37.5C12.5 60 25 77.5 40 77.5C55 77.5 67.5 60 70 37.5C70.6086 32.5508 69.7801 27.5311 67.6133 23.04L77.5 7.5" stroke="#00647A" stroke-width="4" stroke-linecap="round" stroke-linejoin="round"/>
<path d="M32.5 2.5V8.27C28.6172 9.06232 24.9183 10.5787 21.5967 12.74L17.5 2.5" stroke="#00647A" stroke-width="4" stroke-linecap="round" stroke-linejoin="round"/>
<path d="M62.5 2.5L58.4033 12.74C55.0817 10.5787 51.3828 9.06232 47.5 8.27V2.5" stroke="#00647A" stroke-width="4" stroke-linecap="round" stroke-linejoin="round"/>
<path d="M52.1846 9.61328L52.1546 9.63661C52.1546 9.63661 43.8213 16.7666 49.7413 24.0599" stroke="#00647A" stroke-width="4" stroke-linecap="round" stroke-linejoin="round"/>
<path d="M69.2633 42.4999C69.2633 42.4999 50.0466 36.8332 47.6133 48.2199" stroke="#00647A" stroke-width="4" stroke-linecap="round" stroke-linejoin="round"/>
<path d="M10 37.4981C10 37.4981 29.3333 38.6447 29.7367 30.4414" stroke="#00647A" stroke-width="4" stroke-linecap="round" stroke-linejoin="round"/>
<path d="M22.8906 36.3906L29.7373 42.5006" stroke="#00647A" stroke-width="4" stroke-linecap="round" stroke-linejoin="round"/>
<path d="M28.0352 73.5754V73.5354C28.0352 73.5354 33.0018 62.332 40.0018 62.332" stroke="#00647A" stroke-width="4" stroke-linecap="round" stroke-linejoin="round"/>
</g>
<defs>
<clipPath id="clip0_168_839">
<rect width="80" height="80" fill="white"/>
</clipPath>
</defs>
</svg>
