<svg width="24" height="25" viewBox="0 0 24 25" fill="none" xmlns="http://www.w3.org/2000/svg">
<g clip-path="url(#clip0_157_2154)">
<path d="M12 19V23.5" stroke="#00647A" stroke-linecap="round" stroke-linejoin="round"/>
<path d="M14.25 20.5C14.1119 20.5 14 20.3881 14 20.25C14 20.1119 14.1119 20 14.25 20" stroke="#00647A"/>
<path d="M14.25 20.5C14.3881 20.5 14.5 20.3881 14.5 20.25C14.5 20.1119 14.3881 20 14.25 20" stroke="#00647A"/>
<path d="M14.25 23C14.1119 23 14 22.8881 14 22.75C14 22.6119 14.1119 22.5 14.25 22.5" stroke="#00647A"/>
<path d="M14.25 23C14.3881 23 14.5 22.8881 14.5 22.75C14.5 22.6119 14.3881 22.5 14.25 22.5" stroke="#00647A"/>
<path d="M6.5 23.5V20.5" stroke="#00647A" stroke-linecap="round" stroke-linejoin="round"/>
<path d="M5 22H8" stroke="#00647A" stroke-linecap="round" stroke-linejoin="round"/>
<path d="M23.5 24.0004V23.0004C23.4996 22.1857 23.2504 21.3905 22.7858 20.7212C22.3211 20.052 21.6632 19.5406 20.9 19.2554L16 17.6094" stroke="#00647A" stroke-linecap="round" stroke-linejoin="round"/>
<path d="M8 17.6094L3.1 19.2554C2.3368 19.5406 1.67887 20.052 1.21423 20.7212C0.749597 21.3905 0.500407 22.1857 0.5 23.0004V24.0004" stroke="#00647A" stroke-linecap="round" stroke-linejoin="round"/>
<path d="M16.4016 8.2L16.0636 6.5C12.0636 6.5 12.0636 4.5 12.0636 4.5H11.9806C11.9806 4.5 11.9806 6.5 7.98062 6.5L7.64062 8.2" stroke="#00647A" stroke-linecap="round" stroke-linejoin="round"/>
<path d="M10.5 13.5C10.8727 13.8332 11.3582 14.012 11.858 14H12.142C12.6418 14.0122 13.1274 13.8334 13.5 13.5" stroke="#00647A" stroke-linecap="round" stroke-linejoin="round"/>
<path d="M11 9.49919C10.8941 9.33324 10.7452 9.19911 10.5691 9.11107C10.393 9.02302 10.1963 8.98436 10 8.99919C9.80369 8.98436 9.60702 9.02302 9.43094 9.11107C9.25485 9.19911 9.10592 9.33324 9 9.49919" stroke="#00647A" stroke-linecap="round" stroke-linejoin="round"/>
<path d="M15 9.49919C14.8941 9.33324 14.7452 9.19911 14.5691 9.11107C14.393 9.02302 14.1963 8.98436 14 8.99919C13.8037 8.98436 13.607 9.02302 13.4309 9.11107C13.2548 9.19911 13.1059 9.33324 13 9.49919" stroke="#00647A" stroke-linecap="round" stroke-linejoin="round"/>
<path d="M11.9996 17C13.3866 17 16.4896 15.279 16.9316 12.635C16.9585 12.4733 17.0247 12.3207 17.1245 12.1906C17.2242 12.0605 17.3544 11.9569 17.5036 11.889C18.5816 11.399 18.8516 9.437 17.9806 9C18.4806 6.014 18.4806 1 11.9996 1C5.51864 1 5.52264 6.014 6.01864 9C5.14764 9.437 5.41864 11.4 6.49564 11.889C6.64483 11.9569 6.77502 12.0605 6.87477 12.1906C6.97451 12.3207 7.04075 12.4733 7.06764 12.635C7.50964 15.279 10.6126 17 11.9996 17Z" stroke="#00647A" stroke-linecap="round" stroke-linejoin="round"/>
</g>
<defs>
<clipPath id="clip0_157_2154">
<rect width="24" height="24" fill="white" transform="translate(0 0.5)"/>
</clipPath>
</defs>
</svg>
