<svg width="80" height="80" viewBox="0 0 80 80" fill="none" xmlns="http://www.w3.org/2000/svg">
<g clip-path="url(#clip0_168_775)">
<path d="M31.6885 59.0789C31.3127 58.7237 30.9117 58.3961 30.4885 58.0989L38.5519 50.0389C38.8524 49.737 39.0709 49.3634 39.1867 48.9534C39.3025 48.5435 39.3118 48.1108 39.2136 47.6962C39.1155 47.2817 38.9132 46.8991 38.6259 46.5846C38.3387 46.27 37.9758 46.034 37.5719 45.8989L34.8719 44.9989L32.2785 42.4055C31.8094 41.9382 31.1741 41.6758 30.5119 41.6758C29.8496 41.6758 29.2144 41.9382 28.7452 42.4055L21.7719 49.3789C21.4727 48.9572 21.1453 48.5562 20.7919 48.1789C19.5344 46.9185 17.9846 45.9888 16.2806 45.4728C14.5766 44.9568 12.7715 44.8704 11.026 45.2214C9.28055 45.5724 7.64908 46.3499 6.27704 47.4845C4.90501 48.6191 3.83505 50.0756 3.16257 51.7241C2.4901 53.3726 2.23599 55.1619 2.42292 56.9325C2.60985 58.7031 3.23199 60.3998 4.23389 61.8716C5.23579 63.3433 6.5863 64.5443 8.16502 65.3674C9.74374 66.1905 11.5016 66.6101 13.2819 66.5889C13.2614 68.3683 13.6815 70.1251 14.5047 71.7027C15.3279 73.2804 16.5287 74.6299 17.9999 75.6309C19.4712 76.632 21.1673 77.2535 22.937 77.44C24.7067 77.6266 26.4951 77.3724 28.1427 76.7002C29.7904 76.0279 31.2461 74.9585 32.3802 73.5872C33.5143 72.2158 34.2915 70.5852 34.6425 68.8407C34.9936 67.0961 34.9076 65.2918 34.3921 63.5886C33.8767 61.8854 32.9479 60.3361 31.6885 59.0789Z" stroke="#00647A" stroke-width="4" stroke-linecap="round" stroke-linejoin="round"/>
<path d="M53.3346 15.2382C53.4421 15.7434 53.5858 16.2403 53.7646 16.7249L40.7613 20.0015C40.3621 20.1031 39.9941 20.3015 39.69 20.5793C39.3859 20.8571 39.155 21.2056 39.0179 21.594C38.8807 21.9824 38.8415 22.3987 38.9037 22.8058C38.966 23.213 39.1277 23.5985 39.3746 23.9282L41.2579 26.4315L41.8813 29.8282C41.945 30.1671 42.0778 30.4892 42.2715 30.7745C42.4652 31.0597 42.7156 31.302 43.0071 31.4863C43.2986 31.6705 43.6249 31.7926 43.9657 31.8452C44.3065 31.8977 44.6545 31.8794 44.9879 31.7915L55.9879 28.8482C55.9923 29.365 56.0346 29.8809 56.1146 30.3915C56.4326 32.1439 57.1794 33.7903 58.2884 35.1838C59.3975 36.5774 60.8342 37.6748 62.4704 38.378C64.1067 39.0813 65.8915 39.3686 67.6658 39.2144C69.4401 39.0601 71.1486 38.469 72.639 37.4939C74.1293 36.5188 75.355 35.1899 76.2069 33.6259C77.0588 32.0618 77.5102 30.3113 77.521 28.5303C77.5318 26.7494 77.1016 24.9934 76.2687 23.4192C75.4359 21.8449 74.2263 20.5013 72.7479 19.5082C73.774 18.0554 74.4248 16.3715 74.6423 14.6063C74.8599 12.8411 74.6375 11.0494 73.9948 9.39105C73.3522 7.73264 72.3094 6.25894 70.9592 5.10122C69.609 3.9435 67.9935 3.13772 66.2564 2.75565C64.5194 2.37359 62.7148 2.42711 61.0035 2.91144C59.2921 3.39577 57.7272 4.29588 56.448 5.53158C55.1688 6.76728 54.2151 8.3002 53.6719 9.99377C53.1287 11.6873 53.0128 13.489 53.3346 15.2382Z" stroke="#00647A" stroke-width="4" stroke-linecap="round" stroke-linejoin="round"/>
<path d="M19.8711 17.5L12.3711 10" stroke="#00647A" stroke-width="4" stroke-linecap="round" stroke-linejoin="round"/>
<path d="M29.8711 12.5L27.3711 5" stroke="#00647A" stroke-width="4" stroke-linecap="round" stroke-linejoin="round"/>
<path d="M17.3711 27.5H9.87109" stroke="#00647A" stroke-width="4" stroke-linecap="round" stroke-linejoin="round"/>
<path d="M59.8711 62.5L67.3711 70" stroke="#00647A" stroke-width="4" stroke-linecap="round" stroke-linejoin="round"/>
<path d="M64.8711 52.5H74.8711" stroke="#00647A" stroke-width="4" stroke-linecap="round" stroke-linejoin="round"/>
<path d="M49.8711 67.5L47.3711 75" stroke="#00647A" stroke-width="4" stroke-linecap="round" stroke-linejoin="round"/>
</g>
<defs>
<clipPath id="clip0_168_775">
<rect width="80" height="80" fill="white"/>
</clipPath>
</defs>
</svg>
