<svg width="80" height="80" viewBox="0 0 80 80" fill="none" xmlns="http://www.w3.org/2000/svg">
<path d="M75.625 75.625V13.8751C75.625 12.6153 75.1247 11.4071 74.2339 10.5163C73.3431 9.62552 72.1347 9.12506 70.875 9.12506H57.784C52.3738 6.0129 46.2415 4.375 40 4.375C33.7585 4.375 27.6262 6.0129 22.216 9.12506H9.125C7.86524 9.12506 6.65703 9.62552 5.76624 10.5163C4.87544 11.4071 4.375 12.6153 4.375 13.8751V75.625" stroke="#00647A" stroke-width="4" stroke-linecap="round" stroke-linejoin="round"/>
<path d="M50.6558 50.2062C50.317 49.3033 49.7115 48.525 48.9196 47.9746C48.1276 47.4243 47.1867 47.1279 46.2225 47.125H33.7902C32.8258 47.1279 31.8851 47.4243 31.0932 47.9746C30.3013 48.525 29.6956 49.3033 29.3568 50.2062L23.375 66.125H56.625L50.6558 50.2062Z" stroke="#00647A" stroke-width="4" stroke-linecap="round" stroke-linejoin="round"/>
<path d="M23.375 66.125V70.875C23.375 72.1347 23.8755 73.3431 24.7662 74.2339C25.657 75.1247 26.8652 75.625 28.125 75.625H51.875C53.1347 75.625 54.3431 75.1247 55.2339 74.2339C56.1247 73.3431 56.625 72.1347 56.625 70.875V66.125" stroke="#00647A" stroke-width="4" stroke-linecap="round" stroke-linejoin="round"/>
<path d="M25.75 40C25.75 36.2206 27.2513 32.5961 29.9237 29.9237C32.5961 27.2513 36.2206 25.75 40 25.75C43.7794 25.75 47.404 27.2513 50.0763 29.9237C52.7487 32.5961 54.25 36.2206 54.25 40" stroke="#00647A" stroke-width="4" stroke-linecap="round" stroke-linejoin="round"/>
<path d="M61.7708 49.4997C63.3466 45.8853 63.9976 41.9358 63.6655 38.0069C63.3333 34.0784 62.0283 30.294 59.8683 26.9957C57.708 23.6973 54.7608 20.9887 51.292 19.114C47.8236 17.2394 43.9428 16.2578 40 16.2578C36.0572 16.2578 32.1765 17.2394 28.7079 19.114C25.2393 20.9887 22.292 23.6973 20.1318 26.9957C17.9716 30.294 16.6666 34.0784 16.3344 38.0069C16.0023 41.9358 16.6534 45.8853 18.2292 49.4997" stroke="#00647A" stroke-width="4" stroke-linecap="round" stroke-linejoin="round"/>
<path d="M13.875 19.8125C13.2192 19.8125 12.6875 19.2808 12.6875 18.625C12.6875 17.9692 13.2192 17.4375 13.875 17.4375" stroke="#00647A" stroke-width="4"/>
<path d="M13.875 19.8125C14.5308 19.8125 15.0625 19.2808 15.0625 18.625C15.0625 17.9692 14.5308 17.4375 13.875 17.4375" stroke="#00647A" stroke-width="4"/>
<path d="M66.125 19.8125C65.4692 19.8125 64.9375 19.2808 64.9375 18.625C64.9375 17.9692 65.4692 17.4375 66.125 17.4375" stroke="#00647A" stroke-width="4"/>
<path d="M66.125 19.8125C66.7808 19.8125 67.3125 19.2808 67.3125 18.625C67.3125 17.9692 66.7808 17.4375 66.125 17.4375" stroke="#00647A" stroke-width="4"/>
</svg>
