<svg width="80" height="80" viewBox="0 0 80 80" fill="none" xmlns="http://www.w3.org/2000/svg">
<path d="M15.7461 12.46C17.5294 6.43 20.4494 2.5 23.7494 2.5C27.0494 2.5 29.9694 6.43 31.7494 12.46" stroke="#00647A" stroke-width="4" stroke-linecap="round" stroke-linejoin="round"/>
<path d="M31.75 40.0391C29.97 46.0691 27.05 49.9991 23.75 49.9991C20.45 49.9991 17.53 46.0691 15.75 40.0391" stroke="#00647A" stroke-width="4" stroke-linecap="round" stroke-linejoin="round"/>
<path d="M28.6188 34.7428C40.0391 28.1945 47.1171 19.0837 44.4278 14.3931C41.7381 9.7026 30.2999 11.2086 18.8794 17.7568C7.45892 24.3051 0.380992 33.4158 3.07044 38.1065C5.75989 42.7971 17.1983 41.2911 28.6188 34.7428Z" stroke="#00647A" stroke-width="4" stroke-linecap="round" stroke-linejoin="round"/>
<path d="M44.4277 38.1065C47.1171 33.4158 40.0391 24.3051 28.6188 17.7569C17.1983 11.2086 5.75988 9.70259 3.07044 14.3931C0.380994 19.0837 7.45892 28.1945 18.8794 34.7428C30.2999 41.2912 41.7384 42.7972 44.4277 38.1065Z" stroke="#00647A" stroke-width="4" stroke-linecap="round" stroke-linejoin="round"/>
<path d="M17.5 77.5V65" stroke="#00647A" stroke-width="4" stroke-linecap="round" stroke-linejoin="round"/>
<path d="M38.75 2.5C62.5467 2.5 67.6833 22.0933 76.1667 44.1C76.312 44.479 76.363 44.8873 76.3153 45.2903C76.268 45.6933 76.123 46.0787 75.8933 46.413C75.664 46.7477 75.3563 47.0213 74.9977 47.2107C74.6387 47.4 74.239 47.4993 73.8333 47.5H67.5V57.5C67.5 60.152 66.4463 62.6957 64.571 64.571C62.6957 66.4463 60.152 67.5 57.5 67.5H52.5V77.5" stroke="#00647A" stroke-width="4" stroke-linecap="round" stroke-linejoin="round"/>
<path d="M23.75 27.5C23.0596 27.5 22.5 26.9404 22.5 26.25C22.5 25.5597 23.0596 25 23.75 25" stroke="#00647A" stroke-width="4"/>
<path d="M23.75 27.5C24.4403 27.5 25 26.9404 25 26.25C25 25.5597 24.4403 25 23.75 25" stroke="#00647A" stroke-width="4"/>
</svg>
