<svg width="80" height="80" viewBox="0 0 80 80" fill="none" xmlns="http://www.w3.org/2000/svg">
<g clip-path="url(#clip0_168_677)">
<path d="M57.5 50C57.5 49.337 57.2366 48.7011 56.7678 48.2322C56.2989 47.7634 55.663 47.5 55 47.5H47.5V40C47.5 39.337 47.2366 38.7011 46.7678 38.2322C46.2989 37.7634 45.663 37.5 45 37.5H35C34.337 37.5 33.7011 37.7634 33.2322 38.2322C32.7634 38.7011 32.5 39.337 32.5 40V47.5H25C24.337 47.5 23.7011 47.7634 23.2322 48.2322C22.7634 48.7011 22.5 49.337 22.5 50V60C22.5 60.663 22.7634 61.2989 23.2322 61.7678C23.7011 62.2366 24.337 62.5 25 62.5H32.5V70C32.5 70.663 32.7634 71.2989 33.2322 71.7678C33.7011 72.2366 34.337 72.5 35 72.5H45C45.663 72.5 46.2989 72.2366 46.7678 71.7678C47.2366 71.2989 47.5 70.663 47.5 70V62.5H55C55.663 62.5 56.2989 62.2366 56.7678 61.7678C57.2366 61.2989 57.5 60.663 57.5 60V50Z" stroke="#00647A" stroke-width="4" stroke-linecap="round" stroke-linejoin="round"/>
<path d="M67.5 2.5V77.5" stroke="#00647A" stroke-width="4" stroke-linecap="round" stroke-linejoin="round"/>
<path d="M77.5 2.5V25C77.4921 27.6497 76.436 30.1887 74.5623 32.0623C72.6887 33.936 70.1497 34.9921 67.5 35C64.8503 34.9921 62.3113 33.936 60.4377 32.0623C58.564 30.1887 57.5079 27.6497 57.5 25V2.5" stroke="#00647A" stroke-width="4" stroke-linecap="round" stroke-linejoin="round"/>
<path d="M12.5 35V77.5" stroke="#00647A" stroke-width="4" stroke-linecap="round" stroke-linejoin="round"/>
<path d="M12.5 35C9.85027 34.9921 7.31133 33.936 5.43767 32.0623C3.56402 30.1887 2.50791 27.6497 2.5 25V12.5C2.50791 9.85027 3.56402 7.31133 5.43767 5.43767C7.31133 3.56402 9.85027 2.50791 12.5 2.5C15.1497 2.50791 17.6887 3.56402 19.5623 5.43767C21.436 7.31133 22.4921 9.85027 22.5 12.5V25C22.4921 27.6497 21.436 30.1887 19.5623 32.0623C17.6887 33.936 15.1497 34.9921 12.5 35Z" stroke="#00647A" stroke-width="4" stroke-linecap="round" stroke-linejoin="round"/>
</g>
<defs>
<clipPath id="clip0_168_677">
<rect width="80" height="80" fill="white"/>
</clipPath>
</defs>
</svg>
