<svg width="80" height="80" viewBox="0 0 80 80" fill="none" xmlns="http://www.w3.org/2000/svg">
<path d="M26.0946 59.0781C22.2092 60.5124 18.2227 61.6567 14.168 62.5015L19.168 77.5015C26.9813 76.095 34.5564 73.5901 41.668 70.0615" stroke="#00647A" stroke-width="4" stroke-linecap="round" stroke-linejoin="round"/>
<path d="M64.3346 49.6433C67.5902 43.6132 69.2538 36.8523 69.168 30C69.168 22.7065 66.2707 15.7118 61.1134 10.5546C55.9562 5.39731 48.9614 2.5 41.668 2.5C34.3745 2.5 27.3798 5.39731 22.2225 10.5546C17.0653 15.7118 14.168 22.7065 14.168 30C14.168 70 64.168 77.5 64.168 77.5L69.168 62.5C69.168 62.5 29.168 55 29.168 30C29.0435 28.3266 29.2814 26.6461 29.8656 25.073C30.4498 23.5 31.3664 22.0715 32.5529 20.8849C33.7394 19.6984 35.168 18.7818 36.741 18.1976C38.314 17.6135 39.9946 17.3755 41.668 17.5C43.3414 17.3755 45.0219 17.6135 46.5949 18.1976C48.168 18.7818 49.5965 19.6984 50.783 20.8849C51.9696 22.0715 52.8862 23.5 53.4703 25.073C54.0545 26.6461 54.2924 28.3266 54.168 30C54.1656 34.8096 52.6147 39.4906 49.7446 43.35" stroke="#00647A" stroke-width="4" stroke-linecap="round" stroke-linejoin="round"/>
</svg>
