<svg width="80" height="80" viewBox="0 0 80 80" fill="none" xmlns="http://www.w3.org/2000/svg">
<g clip-path="url(#clip0_168_631)">
<path d="M2.5 19.9993C3.38311 15.7134 5.54327 11.7954 8.69614 8.7609C11.849 5.72643 15.8468 3.71775 20.1633 2.99926C23.4515 2.28109 26.8589 2.30888 30.1349 3.08057C33.411 3.85227 36.4725 5.34826 39.0944 7.4586C41.7164 9.56894 43.8321 12.24 45.2861 15.2754C46.7401 18.3109 47.4955 21.6335 47.4967 24.9993C47.5106 28.8816 46.6714 32.7196 45.0384 36.2418C43.4055 39.7641 41.0186 42.8845 38.0467 45.3826C36.0656 46.675 34.4824 48.4922 33.4736 50.6316C32.4648 52.771 32.0701 55.1486 32.3333 57.4993C32.5793 60.1811 32.5279 62.882 32.18 65.5526C31.4183 69.1811 29.3397 72.3989 26.3454 74.5853C23.351 76.7716 19.6531 77.7716 15.9649 77.3922C12.2768 77.0127 8.85988 75.2809 6.37338 72.5307C3.88688 69.7805 2.50701 66.2068 2.5 62.4993" stroke="#00647A" stroke-width="4" stroke-linecap="round" stroke-linejoin="round"/>
<path d="M13.1406 25.5659C13.4421 23.1533 14.6896 20.9593 16.6087 19.4665C17.559 18.7273 18.6455 18.1826 19.8063 17.8634C20.9671 17.5441 22.1794 17.4566 23.374 17.6059C24.5685 17.7552 25.722 18.1383 26.7686 18.7333C27.8151 19.3284 28.7342 20.1237 29.4734 21.074C30.2125 22.0242 30.7573 23.1108 31.0765 24.2716C31.3957 25.4323 31.4832 26.6446 31.334 27.8392" stroke="#00647A" stroke-width="4" stroke-linecap="round" stroke-linejoin="round"/>
<path d="M77.5 32.5H62.5" stroke="#00647A" stroke-width="4" stroke-linecap="round" stroke-linejoin="round"/>
<path d="M62.5 17.5L72.5 7.5" stroke="#00647A" stroke-width="4" stroke-linecap="round" stroke-linejoin="round"/>
<path d="M62.5 47.5L72.5 57.5" stroke="#00647A" stroke-width="4" stroke-linecap="round" stroke-linejoin="round"/>
</g>
<defs>
<clipPath id="clip0_168_631">
<rect width="80" height="80" fill="white"/>
</clipPath>
</defs>
</svg>
