<svg width="80" height="80" viewBox="0 0 80 80" fill="none" xmlns="http://www.w3.org/2000/svg">
<g clip-path="url(#clip0_168_655)">
<path d="M69.1692 37.4961C69.1692 36.17 68.6424 34.8982 67.7048 33.9606C66.7671 33.0229 65.4953 32.4961 64.1692 32.4961C52.6759 32.4961 48.7692 25.4961 48.6426 25.2594C48.1966 24.4294 47.5354 23.7348 46.7283 23.2486C45.9212 22.7623 44.9981 22.5024 44.0559 22.4961C43.1079 22.5176 42.1855 22.8082 41.3964 23.3341C40.6073 23.86 39.984 24.5994 39.5992 25.4661L19.5992 70.4661C19.3324 71.0662 19.1864 71.713 19.1696 72.3696C19.1528 73.0262 19.2654 73.6796 19.5011 74.2926C19.9772 75.5307 20.9255 76.5289 22.1376 77.0678C23.3496 77.6066 24.726 77.6419 25.9641 77.1658C26.5771 76.9301 27.1377 76.576 27.6139 76.1236C28.09 75.6713 28.4724 75.1296 28.7392 74.5294L36.9992 55.9194C38.4176 56.8012 39.5896 58.028 40.4056 59.4852C41.2216 60.9424 41.6552 62.5826 41.6659 64.2528V72.4961C41.6659 73.8222 42.1927 75.0939 43.1304 76.0316C44.068 76.9693 45.3398 77.4961 46.6659 77.4961C47.992 77.4961 49.2637 76.9693 50.2014 76.0316C51.1391 75.0939 51.6659 73.8222 51.6659 72.4961V64.2694C51.6758 60.6529 50.6986 57.1023 48.8395 54.0003C46.9804 50.8982 44.3099 48.3624 41.1159 46.6661L45.6192 36.5361C50.9354 40.593 57.4849 42.6985 64.1692 42.4994C64.8261 42.4994 65.4766 42.37 66.0834 42.1185C66.6903 41.867 67.2416 41.4984 67.7059 41.0338C68.1703 40.5691 68.5385 40.0175 68.7896 39.4105C69.0407 38.8035 69.1697 38.153 69.1692 37.4961Z" stroke="#00647A" stroke-width="4" stroke-linecap="round" stroke-linejoin="round"/>
<path d="M42.9219 11.2461C42.9219 13.5667 43.8437 15.7923 45.4847 17.4333C47.1256 19.0742 49.3512 19.9961 51.6719 19.9961C53.9925 19.9961 56.2181 19.0742 57.8591 17.4333C59.5 15.7923 60.4219 13.5667 60.4219 11.2461C60.4219 8.92545 59.5 6.69985 57.8591 5.05891C56.2181 3.41797 53.9925 2.49609 51.6719 2.49609C49.3512 2.49609 47.1256 3.41797 45.4847 5.05891C43.8437 6.69985 42.9219 8.92545 42.9219 11.2461Z" stroke="#00647A" stroke-width="4" stroke-linecap="round" stroke-linejoin="round"/>
<path d="M68.4883 39.9961H77.4983" stroke="#00647A" stroke-width="4" stroke-linecap="round" stroke-linejoin="round"/>
<path d="M2.5 39.9961H51.47" stroke="#00647A" stroke-width="4" stroke-linecap="round" stroke-linejoin="round"/>
<path d="M9.42188 39.9961V77.4961" stroke="#00647A" stroke-width="4" stroke-linecap="round" stroke-linejoin="round"/>
<path d="M68.4219 39.9961V77.4961" stroke="#00647A" stroke-width="4" stroke-linecap="round" stroke-linejoin="round"/>
</g>
<defs>
<clipPath id="clip0_168_655">
<rect width="80" height="80" fill="white"/>
</clipPath>
</defs>
</svg>
