<svg width="80" height="80" viewBox="0 0 80 80" fill="none" xmlns="http://www.w3.org/2000/svg">
<path d="M32.875 9.125H37.625C38.8848 9.125 40.093 9.62545 40.9838 10.5162C41.8746 11.407 42.375 12.6152 42.375 13.875V32.875C42.375 37.9141 40.3732 42.7468 36.81 46.31C33.2468 49.8732 28.4141 51.875 23.375 51.875C18.3359 51.875 13.5032 49.8732 9.93997 46.31C6.37678 42.7468 4.375 37.9141 4.375 32.875V13.875C4.375 12.6152 4.87544 11.407 5.76624 10.5162C6.65704 9.62545 7.86522 9.125 9.125 9.125H13.875" stroke="#00647A" stroke-width="4" stroke-linecap="round" stroke-linejoin="round"/>
<path d="M13.875 4.375V16.25" stroke="#00647A" stroke-width="4" stroke-linecap="round" stroke-linejoin="round"/>
<path d="M32.875 4.375V16.25" stroke="#00647A" stroke-width="4" stroke-linecap="round" stroke-linejoin="round"/>
<path d="M56.625 32.875C56.625 35.3946 57.6259 37.8109 59.4075 39.5925C61.1891 41.3741 63.6054 42.375 66.125 42.375C68.6446 42.375 71.0609 41.3741 72.8425 39.5925C74.6241 37.8109 75.625 35.3946 75.625 32.875C75.625 30.3554 74.6241 27.9391 72.8425 26.1575C71.0609 24.3759 68.6446 23.375 66.125 23.375C63.6054 23.375 61.1891 24.3759 59.4075 26.1575C57.6259 27.9391 56.625 30.3554 56.625 32.875Z" stroke="#00647A" stroke-width="4" stroke-linecap="round" stroke-linejoin="round"/>
<path d="M23.375 51.875V54.25C23.375 59.919 25.627 65.3558 29.6356 69.3644C33.6442 73.373 39.081 75.625 44.75 75.625C50.419 75.625 55.8558 73.373 59.8644 69.3644C63.873 65.3558 66.125 59.919 66.125 54.25V42.375" stroke="#00647A" stroke-width="4" stroke-linecap="round" stroke-linejoin="round"/>
</svg>
