<svg width="80" height="80" viewBox="0 0 80 80" fill="none" xmlns="http://www.w3.org/2000/svg">
<g clip-path="url(#clip0_168_561)">
<path d="M40 2.5V35" stroke="#00647A" stroke-width="4" stroke-linecap="round" stroke-linejoin="round"/>
<path d="M27.5 20.4339C27.5001 19.4247 27.1947 18.439 26.6241 17.6066C26.0534 16.7741 25.2443 16.1339 24.3029 15.77C23.3616 15.406 22.3321 15.3355 21.3499 15.5677C20.3678 15.7998 19.4788 16.3237 18.8 17.0706L15.5033 20.6972C7.1356 29.9015 2.49934 41.8945 2.5 54.3339V67.5006C2.50027 69.1346 2.90095 70.7436 3.66697 72.1869C4.433 73.6302 5.54103 74.8639 6.89414 75.7799C8.24726 76.6959 9.80422 77.2663 11.4288 77.4414C13.0534 77.6164 14.6962 77.3907 16.2133 76.7839L24.3567 73.5272C25.2847 73.1561 26.0802 72.5153 26.6405 71.6877C27.2008 70.86 27.5002 69.8834 27.5 68.8839V20.4339Z" stroke="#00647A" stroke-width="4" stroke-linecap="round" stroke-linejoin="round"/>
<path d="M17.5 60V52.5L40 35" stroke="#00647A" stroke-width="4" stroke-linecap="round" stroke-linejoin="round"/>
<path d="M17.5 52.5L12.5 47.5" stroke="#00647A" stroke-width="4" stroke-linecap="round" stroke-linejoin="round"/>
<path d="M52.4994 20.4339C52.4994 19.4247 52.8047 18.439 53.3754 17.6066C53.946 16.7741 54.7552 16.1339 55.6965 15.77C56.6379 15.406 57.6673 15.3355 58.6495 15.5677C59.6317 15.7998 60.5206 16.3237 61.1994 17.0706L64.4961 20.6972C72.8618 29.9012 77.4968 41.8928 77.4961 54.3306V67.5006C77.4958 69.1346 77.0951 70.7436 76.3291 72.1869C75.5631 73.6302 74.4551 74.8639 73.102 75.7799C71.7488 76.6959 70.1919 77.2663 68.5673 77.4414C66.9427 77.6164 65.2999 77.3907 63.7828 76.7839L55.6394 73.5272C54.7114 73.1561 53.9159 72.5153 53.3556 71.6877C52.7953 70.86 52.4959 69.8834 52.4961 68.8839L52.4994 20.4339Z" stroke="#00647A" stroke-width="4" stroke-linecap="round" stroke-linejoin="round"/>
<path d="M62.5 60V52.5L40 35" stroke="#00647A" stroke-width="4" stroke-linecap="round" stroke-linejoin="round"/>
<path d="M62.5 52.5L67.5 47.5" stroke="#00647A" stroke-width="4" stroke-linecap="round" stroke-linejoin="round"/>
</g>
<defs>
<clipPath id="clip0_168_561">
<rect width="80" height="80" fill="white"/>
</clipPath>
</defs>
</svg>
