<svg width="80" height="80" viewBox="0 0 80 80" fill="none" xmlns="http://www.w3.org/2000/svg">
<path d="M76.4419 40H3.55859" stroke="#00647A" stroke-width="4" stroke-linecap="round" stroke-linejoin="round"/>
<path d="M55.8618 71.7179H68.3885C69.2725 71.7179 70.1204 71.3667 70.7455 70.7416C71.3706 70.1165 71.7218 69.2686 71.7218 68.3846V55.8613M55.8618 8.28125H68.3885C69.2725 8.28125 70.1204 8.63244 70.7455 9.25756C71.3706 9.88268 71.7218 10.7305 71.7218 11.6146V24.1412M24.1418 8.28125H11.6185C10.7344 8.28125 9.88659 8.63244 9.26147 9.25756C8.63635 9.88268 8.28516 10.7305 8.28516 11.6146V24.1412M24.1418 71.7213H11.6185C10.7344 71.7213 9.88659 71.3701 9.26147 70.7449C8.63635 70.1198 8.28516 69.272 8.28516 68.3879V55.8613" stroke="#00647A" stroke-width="4" stroke-linecap="round" stroke-linejoin="round"/>
</svg>
