<svg width="80" height="80" viewBox="0 0 80 80" fill="none" xmlns="http://www.w3.org/2000/svg">
<path d="M36.448 20.785C34.6725 20.3907 32.8312 20.4001 31.0599 20.8126C29.2886 21.225 27.6325 22.03 26.2139 23.168C24.7953 24.3061 23.6503 25.7481 22.8635 27.3878C22.0767 29.0275 21.6681 30.823 21.668 32.6416C21.6679 35.6046 22.493 38.5091 24.0509 41.0296C25.6087 43.55 27.8377 45.5868 30.488 46.9116C33.8471 48.5919 36.6722 51.1741 38.6467 54.3691C40.6213 57.5641 41.6674 61.2457 41.668 65.0016C41.668 68.3169 42.9849 71.4963 45.3291 73.8405C47.6733 76.1847 50.8528 77.5016 54.168 77.5016C57.4832 77.5016 60.6626 76.1847 63.0068 73.8405C65.351 71.4963 66.668 68.3169 66.668 65.0016V43.545C66.6676 38.9938 65.115 34.5789 62.2666 31.0293C59.4182 27.4797 55.4444 25.0077 51.0013 24.0216L36.448 20.785Z" stroke="#00647A" stroke-width="4" stroke-linecap="round" stroke-linejoin="round"/>
<path d="M11.668 10C11.668 11.9891 12.4581 13.8968 13.8647 15.3033C15.2712 16.7098 17.1788 17.5 19.168 17.5C21.1571 17.5 23.0647 16.7098 24.4713 15.3033C25.8778 13.8968 26.668 11.9891 26.668 10C26.668 8.01088 25.8778 6.10322 24.4713 4.6967C23.0647 3.29018 21.1571 2.5 19.168 2.5C17.1788 2.5 15.2712 3.29018 13.8647 4.6967C12.4581 6.10322 11.668 8.01088 11.668 10Z" stroke="#00647A" stroke-width="4" stroke-linecap="round" stroke-linejoin="round"/>
<path d="M36.668 7.5C36.668 8.15661 36.7973 8.80679 37.0486 9.41342C37.2998 10.02 37.6681 10.5712 38.1324 11.0355C38.5967 11.4998 39.1479 11.8681 39.7546 12.1194C40.3612 12.3707 41.0114 12.5 41.668 12.5C42.3246 12.5 42.9748 12.3707 43.5814 12.1194C44.188 11.8681 44.7392 11.4998 45.2035 11.0355C45.6678 10.5712 46.0361 10.02 46.2874 9.41342C46.5386 8.80679 46.668 8.15661 46.668 7.5C46.668 6.84339 46.5386 6.19321 46.2874 5.58658C46.0361 4.97995 45.6678 4.42876 45.2035 3.96447C44.7392 3.50017 44.188 3.13188 43.5814 2.8806C42.9748 2.62933 42.3246 2.5 41.668 2.5C41.0114 2.5 40.3612 2.62933 39.7546 2.8806C39.1479 3.13188 38.5967 3.50017 38.1324 3.96447C37.6681 4.42876 37.2998 4.97995 37.0486 5.58658C36.7973 6.19321 36.668 6.84339 36.668 7.5Z" stroke="#00647A" stroke-width="4" stroke-linecap="round" stroke-linejoin="round"/>
<path d="M56.668 12.5C56.668 13.8261 57.1948 15.0979 58.1324 16.0355C59.0701 16.9732 60.3419 17.5 61.668 17.5C62.9941 17.5 64.2658 16.9732 65.2035 16.0355C66.1412 15.0979 66.668 13.8261 66.668 12.5C66.668 11.1739 66.1412 9.90215 65.2035 8.96447C64.2658 8.02678 62.9941 7.5 61.668 7.5C60.3419 7.5 59.0701 8.02678 58.1324 8.96447C57.1948 9.90215 56.668 11.1739 56.668 12.5Z" stroke="#00647A" stroke-width="4" stroke-linecap="round" stroke-linejoin="round"/>
</svg>
