<svg width="80" height="80" viewBox="0 0 80 80" fill="none" xmlns="http://www.w3.org/2000/svg">
<path d="M52.5 75H27.5L30 60H50L52.5 75Z" stroke="#00647A" stroke-width="4" stroke-linecap="round" stroke-linejoin="round"/>
<path d="M20 75H60" stroke="#00647A" stroke-width="4" stroke-linecap="round" stroke-linejoin="round"/>
<path d="M2.5 50H77.5" stroke="#00647A" stroke-width="4" stroke-linecap="round" stroke-linejoin="round"/>
<path d="M12.5 5H67.5C67.5 5 77.5 5 77.5 15V50C77.5 50 77.5 60 67.5 60H12.5C12.5 60 2.5 60 2.5 50V15C2.5 15 2.5 5 12.5 5Z" stroke="#00647A" stroke-width="4" stroke-linecap="round" stroke-linejoin="round"/>
<path d="M40.6652 38.4946C44.6368 38.5731 48.5844 37.8627 52.2795 36.4048C55.9747 34.9469 59.3438 32.7704 62.1919 30.0013L48.8585 16.668C46.3156 17.911 43.5154 18.5368 40.6852 18.4946C37.8528 18.5379 35.0502 17.912 32.5052 16.668L19.1719 30.0013C22.0162 32.7661 25.38 34.9401 29.069 36.3979C32.758 37.8556 36.6993 38.5683 40.6652 38.4946Z" stroke="#00647A" stroke-width="4" stroke-linecap="round" stroke-linejoin="round"/>
</svg>
